<svg width="142" height="35" viewBox="0 0 142 35" fill="none" xmlns="http://www.w3.org/2000/svg">
<path d="M34.693 11.752C33.365 11.752 31.963 12.403 31.086 13.405H31.036V7.11801H28.606V25.403H30.836V24.125H30.886C31.737 25.102 33.29 25.779 34.643 25.779C38.149 25.779 40.403 23.023 40.403 18.765C40.403 14.632 38.049 11.752 34.693 11.752ZM34.267 23.574C32.438 23.574 31.036 22.322 31.036 20.669V17.112C31.036 15.334 32.438 13.982 34.267 13.982C36.647 13.982 37.974 15.71 37.974 18.765C37.974 21.846 36.646 23.575 34.267 23.575V23.574ZM20.716 11.752C17.11 11.752 14.63 14.632 14.63 18.765C14.63 22.998 17.035 25.779 20.716 25.779C24.348 25.779 26.728 22.999 26.728 18.765C26.728 14.632 24.273 11.752 20.716 11.752ZM20.716 23.574C18.437 23.574 17.035 21.721 17.035 18.765C17.035 15.81 18.437 13.981 20.716 13.981C22.921 13.981 24.323 15.86 24.323 18.765C24.323 21.695 22.921 23.575 20.716 23.575V23.574ZM13.503 12.954C13.503 9.84901 11.198 7.87001 7.592 7.87001H0.729004V25.403H3.233V18.465H6.815C9.57 18.465 10.572 19.567 10.572 22.622V25.402H13.002V22.622C13.002 19.825 12.15 18.162 10.294 17.478C12.195 16.812 13.503 15.244 13.503 12.954V12.954ZM7.39 16.235H3.233V10.15H7.366C9.746 10.15 10.973 11.177 10.973 13.206C10.973 15.16 9.721 16.236 7.391 16.236L7.39 16.235ZM53.653 11.752C52.251 11.752 50.748 12.428 50.022 13.405H49.972V12.128H47.592V25.403H50.022V17.063C50.022 15.183 51.249 14.006 53.178 14.006C55.081 14.006 55.983 15.108 55.983 17.413V25.403H58.437V16.71C58.437 13.655 56.584 11.751 53.653 11.751V11.752ZM93.278 11.752C89.671 11.752 87.191 14.632 87.191 18.765C87.191 22.998 89.596 25.779 93.278 25.779C96.91 25.779 99.289 22.999 99.289 18.765C99.289 14.632 96.835 11.752 93.278 11.752ZM93.278 23.574C90.998 23.574 89.596 21.721 89.596 18.765C89.596 15.81 90.999 13.981 93.278 13.981C95.482 13.981 96.885 15.86 96.885 18.765C96.885 21.695 95.482 23.575 93.278 23.575V23.574ZM110.16 7.11801V13.405H110.11C109.663 12.8932 109.112 12.4815 108.495 12.1967C107.878 11.9118 107.208 11.7603 106.528 11.752C103.172 11.752 100.792 14.682 100.792 18.765C100.792 23.023 103.047 25.779 106.553 25.779C107.906 25.779 109.459 25.102 110.31 24.125H110.36V25.403H112.59V7.11801H110.16ZM110.16 20.668C110.16 22.322 108.757 23.574 106.929 23.574C104.549 23.574 103.222 21.846 103.222 18.765C103.222 15.71 104.549 13.981 106.929 13.981C108.757 13.981 110.16 15.334 110.16 17.112V20.669V20.668ZM79.677 11.752C76.071 11.752 73.591 14.632 73.591 18.765C73.591 22.998 75.996 25.779 79.678 25.779C83.309 25.779 85.688 22.999 85.688 18.765C85.688 14.632 83.234 11.752 79.678 11.752H79.677ZM79.677 23.574C77.398 23.574 75.996 21.721 75.996 18.765C75.996 15.81 77.398 13.981 79.677 13.981C81.882 13.981 83.284 15.86 83.284 18.765C83.284 21.695 81.882 23.575 79.677 23.575V23.574ZM44.937 7.11801H42.307V9.69801H44.937V7.11801ZM67.104 11.752C65.626 11.752 64.124 12.453 63.422 13.455H63.372V7.11801H60.942V25.403H63.372V17.063C63.372 15.259 64.674 14.006 66.528 14.006C68.356 14.006 69.408 15.209 69.408 17.288V25.403H71.838V16.686C71.838 13.656 70.01 11.752 67.104 11.752V11.752ZM44.837 12.128H42.407V25.403H44.837V12.128ZM129.339 26.034L129.156 26.094C127.979 26.484 126.238 27.088 124.675 27.807C124.592 27.847 124.537 27.957 124.537 27.957L124.432 28.201L124.427 28.213C124.251 28.611 124.011 29.21 123.906 29.455L123.826 29.648C123.82 29.6629 123.818 29.6794 123.822 29.6952C123.825 29.711 123.834 29.7253 123.846 29.736C123.853 29.7433 123.861 29.7491 123.87 29.753C123.879 29.757 123.888 29.759 123.898 29.759C123.908 29.759 123.921 29.756 123.933 29.751L124.121 29.661C124.55 29.458 125.091 29.15 125.657 28.879L125.677 28.869C126.756 28.359 127.974 27.779 128.707 27.429C128.707 27.429 128.825 27.367 128.885 27.249L129.434 26.147C129.441 26.133 129.444 26.1172 129.442 26.1015C129.441 26.0858 129.434 26.0711 129.424 26.059C129.404 26.034 129.369 26.024 129.339 26.034ZM124.95 24.326L125.464 23.336L125.479 23.309C127.875 18.7962 130.771 14.5675 134.113 10.703L134.206 10.595C134.219 10.5782 134.227 10.558 134.23 10.5368C134.232 10.5155 134.228 10.4941 134.218 10.475C134.208 10.4561 134.192 10.4407 134.172 10.4309C134.153 10.4211 134.131 10.4173 134.11 10.42L133.97 10.44C131.749 10.7479 129.545 11.1634 127.365 11.685C127.217 11.7275 127.083 11.8086 126.977 11.92C125.335 13.886 123.795 15.9358 122.365 18.061C122.297 18.1694 122.27 18.2984 122.288 18.425C122.303 18.537 122.646 21.18 123.167 23.209C121.875 26.929 120.72 31.829 120.72 31.829C120.715 31.8448 120.714 31.8615 120.717 31.8777C120.719 31.894 120.726 31.9095 120.735 31.923C120.755 31.95 120.785 31.965 120.82 31.965H121.556C121.579 31.9653 121.601 31.9588 121.62 31.9463C121.639 31.9338 121.653 31.916 121.662 31.895L121.712 31.757C122.644 29.2183 123.725 26.7369 124.95 24.326V24.326Z" fill="black"/>
<path d="M135.192 11.51L135.189 11.369C135.188 11.3476 135.181 11.3269 135.169 11.3094C135.156 11.292 135.139 11.2786 135.119 11.271C135.099 11.264 135.077 11.2632 135.056 11.2685C135.035 11.2738 135.016 11.2851 135.002 11.301L134.909 11.406C131.013 15.9095 127.736 20.9135 125.166 26.285L125.106 26.41C125.096 26.4294 125.093 26.4512 125.096 26.4726C125.099 26.4941 125.108 26.5141 125.123 26.53C125.138 26.5453 125.157 26.5559 125.178 26.5603C125.199 26.5647 125.221 26.5629 125.241 26.555L125.369 26.502C127.541 25.6022 129.76 24.8223 132.018 24.166C132.084 24.1466 132.146 24.1139 132.199 24.0699C132.252 24.0258 132.296 23.9714 132.327 23.91C133.301 22.011 135.563 18.334 135.563 18.334C135.62 18.252 135.605 18.129 135.605 18.129C135.605 18.129 135.217 13.733 135.192 11.509V11.51Z" fill="black"/>
<path d="M140.236 5.16701C139.683 4.68701 138.879 4.46101 137.632 4.43301C136.499 4.40801 135.154 4.65301 133.629 5.15501C133.401 5.23501 133.218 5.36301 133.056 5.52001C131.495 6.98552 129.999 8.51831 128.572 10.114L128.462 10.234C128.448 10.2507 128.438 10.2715 128.436 10.2935C128.434 10.3155 128.438 10.3376 128.449 10.357C128.472 10.397 128.52 10.417 128.565 10.407L128.725 10.372C131.002 9.88377 133.303 9.51162 135.618 9.25701C135.693 9.24839 135.769 9.25601 135.841 9.27936C135.913 9.30271 135.979 9.34124 136.035 9.39235C136.091 9.44346 136.135 9.50595 136.164 9.57559C136.194 9.64524 136.208 9.7204 136.206 9.79601C136.169 12.056 136.251 14.325 136.452 16.541L136.464 16.686C136.469 16.732 136.499 16.766 136.545 16.779C136.552 16.782 136.56 16.782 136.57 16.784C136.587 16.7838 136.605 16.7797 136.62 16.7719C136.636 16.7641 136.649 16.7528 136.66 16.739L136.742 16.621C138.03 14.7863 139.414 13.0206 140.888 11.331C141.053 11.143 141.096 11.026 141.126 10.855C141.586 7.90501 140.873 5.72101 140.236 5.16701V5.16701Z" fill="black"/>
</svg>
