<svg height="53" width="125" class="css-1ytxtte-RobinhoodSnacksLogo"><path d="M47.756 2.643V5.47h.74c.228 0 .411-.031.547-.095a.749.749 0 0 0 .318-.274c.068-.119.115-.265.14-.44.026-.173.039-.375.039-.604 0-.23-.013-.43-.039-.605A1.214 1.214 0 0 0 49.348 3c-.161-.238-.467-.357-.916-.357h-.676Zm-1.299 7.845V1.42h2.09c1.527 0 2.291.888 2.291 2.662 0 .535-.082.99-.248 1.363-.165.374-.456.675-.872.904l1.4 4.14h-1.375l-1.21-3.872h-.777v3.871h-1.299ZM53.743 8.348c0 .315.087.546.261.694a.92.92 0 0 0 .618.224.92.92 0 0 0 .617-.224c.174-.148.262-.38.262-.694V3.56c0-.314-.088-.546-.262-.694a.922.922 0 0 0-.617-.223.922.922 0 0 0-.618.223c-.174.148-.26.38-.26.694v4.788ZM52.444 3.56c0-.365.064-.688.191-.968a2.036 2.036 0 0 1 1.204-1.108c.258-.093.52-.14.783-.14s.524.047.783.14c.26.093.495.229.707.408.204.186.37.42.497.7.127.28.19.603.19.968v4.788c0 .383-.063.71-.19.981a2.018 2.018 0 0 1-.497.675 2.186 2.186 0 0 1-.707.42c-.259.094-.52.14-.783.14s-.525-.046-.783-.14a2.04 2.04 0 0 1-.694-.42 1.936 1.936 0 0 1-.51-.675c-.127-.272-.191-.598-.191-.98v-4.79ZM59.882 6.285V9.19h.56c.264 0 .47-.038.618-.115a.79.79 0 0 0 .338-.318c.076-.135.123-.297.14-.484.017-.187.025-.39.025-.611 0-.23-.012-.429-.038-.599a1.095 1.095 0 0 0-.152-.433.737.737 0 0 0-.344-.26 1.639 1.639 0 0 0-.574-.083h-.573Zm0-3.642V5.14h.586c.433 0 .724-.108.873-.324.148-.217.222-.533.222-.95 0-.407-.083-.712-.248-.916-.166-.204-.465-.306-.898-.306h-.535Zm-1.299 7.845V1.42h1.898c.416 0 .77.064 1.063.192a1.903 1.903 0 0 1 1.12 1.242c.082.275.122.562.122.859v.331c0 .247-.02.454-.058.624-.038.17-.095.319-.171.446-.145.238-.366.442-.662.611.305.145.53.357.674.637.145.28.217.662.217 1.146v.51c0 .798-.193 1.409-.58 1.833-.386.425-1.004.637-1.852.637h-1.77ZM65.976 1.42h-1.3v9.068h1.3V1.42ZM67.823 10.488V1.42h1.248l1.961 5.464h.026V1.42h1.299v9.068h-1.223l-1.986-5.45h-.026v5.45h-1.3ZM74.168 10.488V1.42h1.3v3.885h1.604V1.42h1.3v9.068h-1.3V6.451h-1.605v4.037h-1.299ZM81.454 8.348c0 .315.087.546.262.694a.92.92 0 0 0 .617.224.92.92 0 0 0 .617-.224c.174-.148.262-.38.262-.694V3.56c0-.314-.088-.546-.262-.694a.922.922 0 0 0-.617-.223.921.921 0 0 0-.617.223c-.175.148-.262.38-.262.694v4.788ZM80.155 3.56c0-.365.064-.688.192-.968a2.034 2.034 0 0 1 1.203-1.108c.258-.093.52-.14.783-.14s.524.047.783.14c.26.093.495.229.707.408.204.186.37.42.497.7.127.28.19.603.19.968v4.788c0 .383-.063.71-.19.981a2.018 2.018 0 0 1-.497.675 2.186 2.186 0 0 1-.707.42c-.259.094-.52.14-.783.14s-.525-.046-.783-.14a2.04 2.04 0 0 1-.694-.42 1.934 1.934 0 0 1-.51-.675c-.127-.272-.191-.598-.191-.98v-4.79ZM87.517 8.348c0 .315.087.546.261.694a.92.92 0 0 0 .618.224.92.92 0 0 0 .617-.224c.174-.148.261-.38.261-.694V3.56c0-.314-.087-.546-.26-.694a.922.922 0 0 0-.618-.223.921.921 0 0 0-.618.223c-.174.148-.261.38-.261.694v4.788ZM86.218 3.56c0-.365.063-.688.19-.968a2.042 2.042 0 0 1 1.204-1.108c.26-.093.52-.14.784-.14.263 0 .524.047.783.14.259.093.494.229.707.408.204.186.369.42.497.7.127.28.19.603.19.968v4.788c0 .383-.063.71-.19.981a2.023 2.023 0 0 1-.497.675 2.185 2.185 0 0 1-.707.42c-.259.094-.52.14-.783.14-.264 0-.525-.046-.784-.14a2.044 2.044 0 0 1-.694-.42 1.941 1.941 0 0 1-.51-.675c-.127-.272-.19-.598-.19-.98v-4.79ZM93.656 2.643v6.623h.599c.365 0 .624-.091.776-.274.153-.183.23-.47.23-.86V3.764c0-.357-.072-.632-.217-.828-.144-.195-.407-.293-.79-.293h-.598Zm-1.299 7.845V1.42h1.923c.747 0 1.314.204 1.7.612.387.407.58.985.58 1.732v4.24c0 .85-.206 1.476-.618 1.88-.412.403-1.004.604-1.776.604h-1.809Z"/><path d="M120.019 15.27a7.66 7.66 0 0 1-.696.936c-.251.284-.362.324-.52-.05a3.647 3.647 0 0 1-.269-1.77c.089-.784.693-1.713 1.6-1.577 1.079.163.191 1.98-.115 2.461Zm-17.448 6.192c-.053-.079.207-.505.248-.579.227-.41.522-.79.839-1.135.569-.62 1.442-1.28 2.336-1.153.48.073.504.657.374 1.025-.146.409-.495.725-.839.97-.78.559-1.762.911-2.729.89-.029-.002-.206.016-.229-.018Zm-31.085 3.025c-.134 1.086-.462 2.112-.922 3.103-.987 2.129-2.343 4.197-4.033 5.836-.358.346-1.001 1.017-1.575.969-.854-.073-.67-1.799-.587-2.346.308-2.043 1.465-4.036 2.526-5.775a19.037 19.037 0 0 1 1.692-2.358c.56-.664 1.427-1.623 2.405-1.476.775.117.557 1.533.494 2.047Zm53.103 2.987c-.559-2.025-1.37-4.004-2.333-5.868-.246-.477-.577-.931-.783-1.426-.204-.489-.098-.86.151-1.305.471-.844 1.036-1.589 1.382-2.502.68-1.793.744-4.045-.718-5.481-1.269-1.248-3.165-1.117-4.446.042-1.22 1.103-1.917 2.794-2.164 4.394a6.235 6.235 0 0 0 .145 2.575c.079.303.199.612.258.92.083.442-.171.78-.445 1.103-1.416 1.668-2.855 3.32-4.377 4.894-.783.809-1.583 1.6-2.4 2.375-.796.754-1.582 1.601-2.487 2.226-.376.26-.615.345-.956-.002-.234-.239-.445-.532-.637-.803-.33-.464-.61-.96-.906-1.447-.194-.32-.689-.787-.693-1.173-.004-.308.339-.42.573-.539.444-.224.888-.45 1.325-.69.898-.492 1.758-1.051 2.516-1.744 1.347-1.232 2.44-2.826 2.297-4.727-.133-1.773-1.494-3.676-3.465-3.402-.993.138-1.84.774-2.553 1.44-.498.463-.95 1.1-1.497 1.501.724-1.41 1.487-2.802 2.212-4.212 1.47-2.856 2.925-5.732 4.201-8.68.334-.77.705-1.54.587-2.404-.093-.678-.483-1.258-1.1-1.564-1.213-.603-2.275.025-2.938 1.069-.808 1.271-1.36 2.74-1.997 4.101-.421.898-.841 1.797-1.263 2.695-1.453 3.095-2.93 6.179-4.507 9.214-1.48 2.852-2.957 5.772-5.008 8.268-.948 1.154-2.037 2.187-3.195 3.128-1.028.837-2.116 1.695-3.302 2.303-.464.238-1.038.51-1.576.443-.686-.085-.843-.808-.816-1.395.063-1.36.741-2.844 1.356-4.034.802-1.55 1.864-2.87 2.994-4.185.23-.267.453-.576.754-.767.313-.199.51-.111.82.05.736.382 1.403.589 2.197.227 1.332-.608 1.756-2.134 1.139-3.418-.637-1.323-2.053-2.095-3.496-2.095-1.616 0-2.987.911-4.129 1.974a19.168 19.168 0 0 0-2.928 3.5c-.946 1.44-1.595 2.988-2.238 4.579-.569 1.41-1.284 2.766-2.17 4.005-.263.368-2.63 3.304-3.018 2.667-.211-.349.093-1.215.173-1.584.19-.87.442-1.722.702-2.572a71.99 71.99 0 0 1 .776-2.4c.25-.726.504-1.505.449-2.284-.052-.735-.47-1.116-.994-1.568-.464-.4-.658-.954-.886-1.503-.517-1.243-1.405-2.394-2.65-2.969-1.23-.567-2.612-.466-3.832.065-2.143.932-3.805 2.87-5.049 4.794-1.85 2.865-3.072 6.055-5.183 8.761-.879 1.127-1.86 2.37-3.084 3.144-.089.056-.4.279-.495.18-.157-.16.142-.863.204-1.043.297-.857.579-1.717.863-2.579.546-1.658 1.164-3.297 1.67-4.969.469-1.551.855-3.205.738-4.836-.086-1.205-.546-2.444-1.688-3.017-1.399-.703-3.004-.103-4.247.644-1.335.804-2.471 1.891-3.516 3.037a64.54 64.54 0 0 0-1.516 1.744c-.398.47-.79 1.09-1.285 1.468-.155-.282.166-1.074.226-1.383.146-.754.344-1.504.381-2.274.06-1.218-.427-2.451-1.735-2.733-1.154-.249-2.023.5-2.56 1.436-.615 1.072-1.149 2.182-1.796 3.239-1.387 2.267-2.962 4.412-4.558 6.535-.978 1.302-1.975 2.593-2.949 3.901-.021-.32-.048-.638-.083-.956-.483-4.26-2.317-8.215-4.846-11.64-2.282-3.093-4.94-6.449-5.15-10.455-.101-1.941.657-3.959 2.086-5.292 1.385-1.292 3.306-1.73 5.156-1.552 1.703.164 3.309.888 4.424 2.21 1.3 1.54 1.735 3.673 1.49 5.64a9.754 9.754 0 0 1-.378 1.71c-.161.515-.282.985-.136 1.52.25.918 1.12 1.6 2.067 1.64 1.009.041 1.772-.63 2.117-1.533.393-1.026.627-2.149.734-3.24C41 8.457 39.279 4.182 35.749 1.88c-3.402-2.217-8.091-2.551-11.686-.59-3.103 1.692-5.23 4.957-5.718 8.436-.576 4.092 1.14 8.16 3.233 11.58 1.093 1.786 2.372 3.45 3.458 5.241 1.17 1.927 2.033 4.032 2.413 6.259.351 2.062.353 4.303-.262 6.317-.572 1.873-1.726 3.57-3.165 4.886-3.125 2.856-7.568 3.84-11.608 2.616-3.504-1.061-6.186-4.108-7.04-7.634-.818-3.376-.124-7.216 2.695-9.467.777-.62 1.844-.957 2.384-1.831a2.52 2.52 0 0 0 .061-2.531c-.428-.767-1.256-1.289-2.14-1.296-1.017-.008-1.927.646-2.724 1.206-3.32 2.333-5.288 5.985-5.6 10.01-.33 4.258.988 8.333 3.618 11.686 2.487 3.172 6.298 5.152 10.254 5.749 2.237.337 4.55.239 6.74-.345 3.732-.996 7.073-3.321 9.349-6.437a16.585 16.585 0 0 0 2.075-3.735c.1-.21.228-.399.758-1.117.509-.688.997-1.392 1.486-2.094a185.67 185.67 0 0 0 2.842-4.212 308.737 308.737 0 0 0 2.675-4.157c.467-.738.982-1.47 1.395-2.242a175.51 175.51 0 0 1-2.208 7.48c-.362 1.132-.875 2.248-1.141 3.405-.243 1.054-.05 2.18.979 2.737.933.506 2.055.247 2.706-.574.634-.798.944-1.89 1.401-2.794 1.133-2.243 2.517-4.356 3.951-6.417 1.242-1.784 2.562-3.515 3.998-5.148a42.1 42.1 0 0 1 1.105-1.209c.356-.374.728-.906 1.164-1.187.714-.46.412.516.309.843-.187.594-.375 1.188-.569 1.78-.661 2.027-1.34 4.049-1.96 6.089-.518 1.702-1.552 4.156-.338 5.779 1.305 1.744 3.793.786 5.15-.334.863-.713 1.642-1.538 2.407-2.354.687-.732 1.316-1.556 2.053-2.237.31 2.395 1.721 4.642 4.36 4.698 2.652.056 4.94-1.694 6.155-3.941-.082.993.088 2.107.917 2.762.78.614 1.858.611 2.762.306.943-.318 1.718-.962 2.411-1.657.81-.81 1.548-1.695 2.183-2.65.005 1.194.386 2.446 1.476 3.078 1.522.884 3.31.164 4.727-.575 2.911-1.52 5.365-3.905 7.762-6.113-.264.703-.528 1.406-.795 2.107-.286.751-.662 1.545-.494 2.367.285 1.396 2.088 2.154 3.265 1.324 1.014-.716 1.332-2.192 1.738-3.29.69-1.87 1.365-3.743 2.038-5.618.853 1.702 1.768 3.423 2.937 4.934.905 1.171 2.119 2.28 3.662 2.41 1.792.15 3.367-1.046 4.637-2.164 2.996-2.637 5.695-5.6 8.36-8.564.442.976.898 1.947 1.296 2.942.518 1.297 1.553 3.314.65 4.637-.744 1.089-2.496 1.088-3.617.68-.79-.29-1.382-.926-2.159-1.217-.756-.283-1.623-.055-2.186.514-.648.654-.828 1.667-.396 2.488.375.715 1.096 1.218 1.78 1.609 3.338 1.901 8.022 1.455 10.282-1.913 1.162-1.73 1.126-3.772.589-5.718Z"/></svg>