<svg width="125" height="53" viewBox="0 0 125 53" fill="none" xmlns="http://www.w3.org/2000/svg">
<g clip-path="url(#clip0_12_922)">
<path d="M47.756 2.64299V5.46999H48.496C48.724 5.46999 48.907 5.43899 49.043 5.37499C49.173 5.31584 49.2833 5.22077 49.361 5.10099C49.429 4.98199 49.476 4.83599 49.501 4.66099C49.527 4.48799 49.54 4.28599 49.54 4.05699C49.54 3.82699 49.527 3.62699 49.501 3.45199C49.4804 3.29269 49.4284 3.13905 49.348 2.99999C49.187 2.76199 48.881 2.64299 48.432 2.64299H47.756ZM46.457 10.488V1.41999H48.547C50.074 1.41999 50.838 2.30799 50.838 4.08199C50.838 4.61699 50.756 5.07199 50.59 5.44499C50.425 5.81899 50.134 6.11999 49.718 6.34899L51.118 10.489H49.743L48.533 6.61699H47.756V10.488H46.457V10.488ZM53.743 8.34799C53.743 8.66299 53.83 8.89399 54.004 9.04199C54.1754 9.19022 54.3955 9.26998 54.622 9.26599C54.8482 9.26973 55.0679 9.18999 55.239 9.04199C55.413 8.89399 55.501 8.66199 55.501 8.34799V3.55999C55.501 3.24599 55.413 3.01399 55.239 2.86599C55.0677 2.71853 54.8481 2.63917 54.622 2.64299C54.3956 2.63892 54.1757 2.7183 54.004 2.86599C53.83 3.01399 53.744 3.24599 53.744 3.55999V8.34799H53.743ZM52.444 3.55999C52.444 3.19499 52.508 2.87199 52.635 2.59199C52.7482 2.33408 52.9136 2.10244 53.1208 1.91172C53.3281 1.72101 53.5726 1.57536 53.839 1.48399C54.097 1.39099 54.359 1.34399 54.622 1.34399C54.885 1.34399 55.146 1.39099 55.405 1.48399C55.665 1.57699 55.9 1.71299 56.112 1.89199C56.316 2.07799 56.482 2.31199 56.609 2.59199C56.736 2.87199 56.799 3.19499 56.799 3.55999V8.34799C56.799 8.73099 56.736 9.05799 56.609 9.32899C56.4924 9.5863 56.3231 9.81626 56.112 10.004C55.9051 10.1875 55.6651 10.33 55.405 10.424C55.146 10.518 54.885 10.564 54.622 10.564C54.359 10.564 54.097 10.518 53.839 10.424C53.5819 10.3319 53.3459 10.189 53.145 10.004C52.9273 9.81934 52.7532 9.58884 52.635 9.32899C52.508 9.05699 52.444 8.73099 52.444 8.34899V3.55899V3.55999ZM59.882 6.28499V9.18999H60.442C60.706 9.18999 60.912 9.15199 61.06 9.07499C61.202 9.00522 61.3197 8.89444 61.398 8.75699C61.474 8.62199 61.521 8.45999 61.538 8.27299C61.555 8.08599 61.563 7.88299 61.563 7.66199C61.563 7.43199 61.551 7.23299 61.525 7.06299C61.5055 6.90955 61.4537 6.76197 61.373 6.62999C61.2868 6.51097 61.1671 6.42043 61.029 6.36999C60.8442 6.30843 60.6498 6.28032 60.455 6.28699H59.882V6.28499ZM59.882 2.64299V5.13999H60.468C60.901 5.13999 61.192 5.03199 61.341 4.81599C61.489 4.59899 61.563 4.28299 61.563 3.86599C61.563 3.45899 61.48 3.15399 61.315 2.94999C61.149 2.74599 60.85 2.64399 60.417 2.64399H59.882V2.64299ZM58.583 10.488V1.41999H60.481C60.897 1.41999 61.251 1.48399 61.544 1.61199C61.813 1.72005 62.0537 1.88812 62.2478 2.10337C62.4419 2.31861 62.5843 2.57535 62.664 2.85399C62.746 3.12899 62.786 3.41599 62.786 3.71299V4.04399C62.786 4.29099 62.766 4.49799 62.728 4.66799C62.69 4.83799 62.633 4.98699 62.557 5.11399C62.412 5.35199 62.191 5.55599 61.895 5.72499C62.2 5.86999 62.425 6.08199 62.569 6.36199C62.714 6.64199 62.786 7.02399 62.786 7.50799V8.01799C62.786 8.81599 62.593 9.42699 62.206 9.85099C61.82 10.276 61.202 10.488 60.354 10.488H58.584H58.583ZM65.976 1.41999H64.676V10.488H65.976V1.41999ZM67.823 10.488V1.41999H69.071L71.032 6.88399H71.058V1.41999H72.357V10.488H71.134L69.148 5.03799H69.122V10.488H67.822H67.823ZM74.168 10.488V1.41999H75.468V5.30499H77.072V1.41999H78.372V10.488H77.072V6.45099H75.467V10.488H74.168V10.488ZM81.454 8.34799C81.454 8.66299 81.541 8.89399 81.716 9.04199C81.8872 9.18999 82.1068 9.26973 82.333 9.26599C82.5592 9.26973 82.7789 9.18999 82.95 9.04199C83.124 8.89399 83.212 8.66199 83.212 8.34799V3.55999C83.212 3.24599 83.124 3.01399 82.95 2.86599C82.7787 2.71853 82.5591 2.63917 82.333 2.64299C82.107 2.63907 81.8874 2.71845 81.716 2.86599C81.541 3.01399 81.454 3.24599 81.454 3.55999V8.34799ZM80.155 3.55999C80.155 3.19499 80.219 2.87199 80.347 2.59199C80.46 2.33411 80.6252 2.10248 80.8323 1.91175C81.0393 1.72103 81.2838 1.57537 81.55 1.48399C81.808 1.39099 82.07 1.34399 82.333 1.34399C82.596 1.34399 82.857 1.39099 83.116 1.48399C83.376 1.57699 83.611 1.71299 83.823 1.89199C84.027 2.07799 84.193 2.31199 84.32 2.59199C84.447 2.87199 84.51 3.19499 84.51 3.55999V8.34799C84.51 8.73099 84.447 9.05799 84.32 9.32899C84.2034 9.5863 84.0341 9.81626 83.823 10.004C83.6161 10.1875 83.3761 10.33 83.116 10.424C82.857 10.518 82.596 10.564 82.333 10.564C82.07 10.564 81.808 10.518 81.55 10.424C81.2929 10.3319 81.0569 10.189 80.856 10.004C80.6383 9.81939 80.4641 9.58888 80.346 9.32899C80.219 9.05699 80.155 8.73099 80.155 8.34899V3.55899V3.55999ZM87.517 8.34799C87.517 8.66299 87.604 8.89399 87.778 9.04199C87.9494 9.19022 88.1695 9.26998 88.396 9.26599C88.6222 9.26973 88.8419 9.18999 89.013 9.04199C89.187 8.89399 89.274 8.66199 89.274 8.34799V3.55999C89.274 3.24599 89.187 3.01399 89.014 2.86599C88.8424 2.7183 88.6224 2.63892 88.396 2.64299C88.1696 2.63883 87.9496 2.71821 87.778 2.86599C87.604 3.01399 87.517 3.24599 87.517 3.55999V8.34799ZM86.218 3.55999C86.218 3.19499 86.281 2.87199 86.408 2.59199C86.5215 2.33428 86.687 2.10281 86.8942 1.91213C87.1014 1.72145 87.3458 1.57569 87.612 1.48399C87.872 1.39099 88.132 1.34399 88.396 1.34399C88.659 1.34399 88.92 1.39099 89.179 1.48399C89.438 1.57699 89.673 1.71299 89.886 1.89199C90.09 2.07799 90.255 2.31199 90.383 2.59199C90.51 2.87199 90.573 3.19499 90.573 3.55999V8.34799C90.573 8.73099 90.51 9.05799 90.383 9.32899C90.2663 9.58623 90.097 9.81616 89.886 10.004C89.6791 10.1875 89.4392 10.33 89.179 10.424C88.92 10.518 88.659 10.564 88.396 10.564C88.132 10.564 87.871 10.518 87.612 10.424C87.355 10.3318 87.119 10.189 86.918 10.004C86.7005 9.81923 86.5263 9.58876 86.408 9.32899C86.281 9.05699 86.218 8.73099 86.218 8.34899V3.55899V3.55999ZM93.656 2.64299V9.26599H94.255C94.62 9.26599 94.879 9.17499 95.031 8.99199C95.184 8.80899 95.261 8.52199 95.261 8.13199V3.76399C95.261 3.40699 95.189 3.13199 95.044 2.93599C94.9 2.74099 94.637 2.64299 94.254 2.64299H93.656ZM92.357 10.488V1.41999H94.28C95.027 1.41999 95.594 1.62399 95.98 2.03199C96.367 2.43899 96.56 3.01699 96.56 3.76399V8.00399C96.56 8.85399 96.354 9.47999 95.942 9.88399C95.53 10.287 94.938 10.488 94.166 10.488H92.357V10.488Z" fill="white"/>
<path d="M120.019 15.27C119.811 15.5993 119.578 15.9122 119.323 16.206C119.072 16.49 118.961 16.53 118.803 16.156C118.568 15.5975 118.475 14.9892 118.534 14.386C118.623 13.602 119.227 12.673 120.134 12.809C121.213 12.972 120.325 14.789 120.019 15.27ZM102.571 21.462C102.518 21.383 102.778 20.957 102.819 20.883C103.046 20.473 103.341 20.093 103.658 19.748C104.227 19.128 105.1 18.468 105.994 18.595C106.474 18.668 106.498 19.252 106.368 19.62C106.222 20.029 105.873 20.345 105.529 20.59C104.749 21.149 103.767 21.501 102.8 21.48C102.771 21.478 102.594 21.496 102.571 21.462V21.462ZM71.4859 24.487C71.3519 25.573 71.0239 26.599 70.5639 27.59C69.5769 29.719 68.2209 31.787 66.5309 33.426C66.1729 33.772 65.5299 34.443 64.9559 34.395C64.1019 34.322 64.2859 32.596 64.3689 32.049C64.6769 30.006 65.8339 28.013 66.8949 26.274C67.3981 25.4461 67.9637 24.6578 68.5869 23.916C69.1469 23.252 70.0139 22.293 70.9919 22.44C71.7669 22.557 71.5489 23.973 71.4859 24.487V24.487ZM124.589 27.474C124.03 25.449 123.219 23.47 122.256 21.606C122.01 21.129 121.679 20.675 121.473 20.18C121.269 19.691 121.375 19.32 121.624 18.875C122.095 18.031 122.66 17.286 123.006 16.373C123.686 14.58 123.75 12.328 122.288 10.892C121.019 9.64402 119.123 9.77502 117.842 10.934C116.622 12.037 115.925 13.728 115.678 15.328C115.546 16.1871 115.596 17.0642 115.823 17.903C115.902 18.206 116.022 18.515 116.081 18.823C116.164 19.265 115.91 19.603 115.636 19.926C114.22 21.594 112.781 23.246 111.259 24.82C110.476 25.629 109.676 26.42 108.859 27.195C108.063 27.949 107.277 28.796 106.372 29.421C105.996 29.681 105.757 29.766 105.416 29.419C105.182 29.18 104.971 28.887 104.779 28.616C104.449 28.152 104.169 27.656 103.873 27.169C103.679 26.849 103.184 26.382 103.18 25.996C103.176 25.688 103.519 25.576 103.753 25.457C104.197 25.233 104.641 25.007 105.078 24.767C105.976 24.275 106.836 23.716 107.594 23.023C108.941 21.791 110.034 20.197 109.891 18.296C109.758 16.523 108.397 14.62 106.426 14.894C105.433 15.032 104.586 15.668 103.873 16.334C103.375 16.797 102.923 17.434 102.376 17.835C103.1 16.425 103.863 15.033 104.588 13.623C106.058 10.767 107.513 7.89101 108.789 4.94301C109.123 4.17301 109.494 3.40301 109.376 2.53901C109.283 1.86101 108.893 1.28101 108.276 0.975015C107.063 0.372015 106.001 1.00001 105.338 2.04401C104.53 3.31501 103.978 4.78401 103.341 6.14501C102.92 7.04301 102.5 7.94202 102.078 8.84002C100.625 11.935 99.1479 15.019 97.5709 18.054C96.0909 20.906 94.6139 23.826 92.5629 26.322C91.6149 27.476 90.5259 28.509 89.3679 29.45C88.3399 30.287 87.2519 31.145 86.0659 31.753C85.6019 31.991 85.0279 32.263 84.4899 32.196C83.8039 32.111 83.6469 31.388 83.6739 30.801C83.7369 29.441 84.4149 27.957 85.0299 26.767C85.8319 25.217 86.8939 23.897 88.0239 22.582C88.2539 22.315 88.4769 22.006 88.7779 21.815C89.0909 21.616 89.2879 21.704 89.5979 21.865C90.3339 22.247 91.0009 22.454 91.7949 22.092C93.1269 21.484 93.5509 19.958 92.9339 18.674C92.2969 17.351 90.8809 16.579 89.4379 16.579C87.8219 16.579 86.4509 17.49 85.3089 18.553C84.197 19.5989 83.214 20.7739 82.3809 22.053C81.4349 23.493 80.7859 25.041 80.1429 26.632C79.5739 28.042 78.8589 29.398 77.9729 30.637C77.7099 31.005 75.3429 33.941 74.9549 33.304C74.7439 32.955 75.0479 32.089 75.1279 31.72C75.3179 30.85 75.5699 29.998 75.8299 29.148C76.0745 28.3435 76.3332 27.5434 76.6059 26.748C76.8559 26.022 77.1099 25.243 77.0549 24.464C77.0029 23.729 76.5849 23.348 76.0609 22.896C75.5969 22.496 75.4029 21.942 75.1749 21.393C74.6579 20.15 73.7699 18.999 72.5249 18.424C71.2949 17.857 69.9129 17.958 68.6929 18.489C66.5499 19.421 64.8879 21.359 63.6439 23.283C61.7939 26.148 60.5719 29.338 58.4609 32.044C57.5819 33.171 56.6009 34.414 55.3769 35.188C55.2879 35.244 54.9769 35.467 54.8819 35.368C54.7249 35.208 55.0239 34.505 55.0859 34.325C55.3829 33.468 55.6649 32.608 55.9489 31.746C56.4949 30.088 57.1129 28.449 57.6189 26.777C58.0879 25.226 58.4739 23.572 58.3569 21.941C58.2709 20.736 57.8109 19.497 56.6689 18.924C55.2699 18.221 53.6649 18.821 52.4219 19.568C51.0869 20.372 49.9509 21.459 48.9059 22.605C48.3902 23.1773 47.8848 23.7587 47.3899 24.349C46.9919 24.819 46.5999 25.439 46.1049 25.817C45.9499 25.535 46.2709 24.743 46.3309 24.434C46.4769 23.68 46.6749 22.93 46.7119 22.16C46.7719 20.942 46.2849 19.709 44.9769 19.427C43.8229 19.178 42.9539 19.927 42.4169 20.863C41.8019 21.935 41.2679 23.045 40.6209 24.102C39.2339 26.369 37.6589 28.514 36.0629 30.637C35.0849 31.939 34.0879 33.23 33.1139 34.538C33.0929 34.218 33.0659 33.9 33.0309 33.582C32.5479 29.322 30.7139 25.367 28.1849 21.942C25.9029 18.849 23.2449 15.493 23.0349 11.487C22.9339 9.54602 23.6919 7.52801 25.1209 6.19501C26.5059 4.90301 28.4269 4.46501 30.2769 4.64301C31.9799 4.80701 33.5859 5.53101 34.7009 6.85301C36.0009 8.39301 36.4359 10.526 36.1909 12.493C36.1164 13.0732 35.9899 13.6455 35.8129 14.203C35.6519 14.718 35.5309 15.188 35.6769 15.723C35.9269 16.641 36.7969 17.323 37.7439 17.363C38.7529 17.404 39.5159 16.733 39.8609 15.83C40.2539 14.804 40.4879 13.681 40.5949 12.59C40.9999 8.45702 39.2789 4.18201 35.7489 1.88001C32.3469 -0.336985 27.6579 -0.670985 24.0629 1.29001C20.9599 2.98201 18.8329 6.24701 18.3449 9.72602C17.7689 13.818 19.4849 17.886 21.5779 21.306C22.6709 23.092 23.9499 24.756 25.0359 26.547C26.2059 28.474 27.0689 30.579 27.4489 32.806C27.7999 34.868 27.8019 37.109 27.1869 39.123C26.6149 40.996 25.4609 42.693 24.0219 44.009C20.8969 46.865 16.4539 47.849 12.4139 46.625C8.9099 45.564 6.2279 42.517 5.3739 38.991C4.5559 35.615 5.2499 31.775 8.0689 29.524C8.8459 28.904 9.9129 28.567 10.4529 27.693C10.6855 27.314 10.8136 26.8803 10.8243 26.4357C10.835 25.9912 10.7279 25.5518 10.5139 25.162C10.0859 24.395 9.2579 23.873 8.3739 23.866C7.3569 23.858 6.4469 24.512 5.6499 25.072C2.3299 27.405 0.361903 31.057 0.0499026 35.082C-0.280097 39.34 1.0379 43.415 3.6679 46.768C6.1549 49.94 9.9659 51.92 13.9219 52.517C16.1589 52.854 18.4719 52.756 20.6619 52.172C24.3939 51.176 27.7349 48.851 30.0109 45.735C30.8607 44.5847 31.5582 43.3293 32.0859 42C32.1859 41.79 32.3139 41.601 32.8439 40.883C33.3529 40.195 33.8409 39.491 34.3299 38.789C35.2964 37.398 36.2438 35.9939 37.1719 34.577C38.0746 33.1985 38.9663 31.8128 39.8469 30.42C40.3139 29.682 40.8289 28.95 41.2419 28.178C40.5614 30.6874 39.8252 33.1813 39.0339 35.658C38.6719 36.79 38.1589 37.906 37.8929 39.063C37.6499 40.117 37.8429 41.243 38.8719 41.8C39.8049 42.306 40.9269 42.047 41.5779 41.226C42.2119 40.428 42.5219 39.336 42.9789 38.432C44.1119 36.189 45.4959 34.076 46.9299 32.015C48.1719 30.231 49.4919 28.5 50.9279 26.867C51.2884 26.4569 51.6568 26.0538 52.0329 25.658C52.3889 25.284 52.7609 24.752 53.1969 24.471C53.9109 24.011 53.6089 24.987 53.5059 25.314C53.3189 25.908 53.1309 26.502 52.9369 27.094C52.2759 29.121 51.5969 31.143 50.9769 33.183C50.4589 34.885 49.4249 37.339 50.6389 38.962C51.9439 40.706 54.4319 39.748 55.7889 38.628C56.6519 37.915 57.4309 37.09 58.1959 36.274C58.8829 35.542 59.5119 34.718 60.2489 34.037C60.5589 36.432 61.9699 38.679 64.6089 38.735C67.2609 38.791 69.5489 37.041 70.7639 34.794C70.6819 35.787 70.8519 36.901 71.6809 37.556C72.4609 38.17 73.5389 38.167 74.4429 37.862C75.3859 37.544 76.1609 36.9 76.8539 36.205C77.6639 35.395 78.4019 34.51 79.0369 33.555C79.0419 34.749 79.4229 36.001 80.5129 36.633C82.0349 37.517 83.8229 36.797 85.2399 36.058C88.1509 34.538 90.6049 32.153 93.0019 29.945C92.7379 30.648 92.4739 31.351 92.2069 32.052C91.9209 32.803 91.5449 33.597 91.7129 34.419C91.9979 35.815 93.8009 36.573 94.9779 35.743C95.9919 35.027 96.3099 33.551 96.7159 32.453C97.4059 30.583 98.0809 28.71 98.7539 26.835C99.6069 28.537 100.522 30.258 101.691 31.769C102.596 32.94 103.81 34.049 105.353 34.179C107.145 34.329 108.72 33.133 109.99 32.015C112.986 29.378 115.685 26.415 118.35 23.451C118.792 24.427 119.248 25.398 119.646 26.393C120.164 27.69 121.199 29.707 120.296 31.03C119.552 32.119 117.8 32.118 116.679 31.71C115.889 31.42 115.297 30.784 114.52 30.493C113.764 30.21 112.897 30.438 112.334 31.007C111.686 31.661 111.506 32.674 111.938 33.495C112.313 34.21 113.034 34.713 113.718 35.104C117.056 37.005 121.74 36.559 124 33.191C125.162 31.461 125.126 29.419 124.589 27.473V27.474Z" fill="white"/>
</g>
<defs>
<clipPath id="clip0_12_922">
<rect width="125" height="53" fill="white"/>
</clipPath>
</defs>
</svg>
