<svg height="18" width="20" class="css-1hrlzl4-TwitterLogo"><path d="M19.962 2.808a8.334 8.334 0 0 1-2.354.645 4.132 4.132 0 0 0 1.802-2.269c-.793.463-1.67.8-2.606.987a4.1 4.1 0 0 0-6.987 3.735 11.612 11.612 0 0 1-8.45-4.272 4.018 4.018 0 0 0-.555 2.063A4.1 4.1 0 0 0 2.635 7.11a4.087 4.087 0 0 1-1.857-.513v.05a4.102 4.102 0 0 0 3.289 4.023 4.163 4.163 0 0 1-1.844.07 4.114 4.114 0 0 0 3.837 2.848 8.223 8.223 0 0 1-5.085 1.755c-.325 0-.65-.02-.975-.056a11.663 11.663 0 0 0 6.298 1.84c7.544 0 11.665-6.246 11.665-11.654 0-.175 0-.35-.012-.525.8-.575 1.5-1.3 2.05-2.124l-.04-.016Z"/></svg>