<svg width="189" height="189" viewBox="0 0 189 189" fill="none" xmlns="http://www.w3.org/2000/svg">
<path d="M185.69 116.885C173.12 167.306 122.052 197.991 71.6251 185.417C21.2196 172.847 -9.46542 121.776 3.11019 71.3597C15.6748 20.9336 66.7427 -9.75377 117.154 2.81632C167.577 15.3864 198.26 66.4631 185.688 116.886L185.689 116.885H185.69Z" fill="#F7931A"/>
<path d="M136.058 80.6342C137.932 68.1091 128.396 61.3765 115.357 56.8851L119.587 39.9189L109.259 37.3455L105.141 53.865C102.426 53.1878 99.6376 52.5497 96.8664 51.9172L101.014 35.2886L90.6926 32.7152L86.4603 49.6759C84.2135 49.1643 82.0067 48.6587 79.8656 48.126L79.8776 48.0726L65.6353 44.5161L62.8879 55.5469C62.8879 55.5469 70.5503 57.3033 70.3889 57.4114C74.5711 58.4552 75.3274 61.2238 75.2018 63.4181L70.3833 82.7467C70.6713 82.8198 71.0449 82.9256 71.4571 83.0912C71.1125 83.0057 70.7458 82.9123 70.3654 82.8212L63.6116 109.898C63.1005 111.168 61.8032 113.075 58.8792 112.351C58.9827 112.501 51.3727 110.478 51.3727 110.478L46.2451 122.3L59.6851 125.65C62.1854 126.277 64.6356 126.933 67.0485 127.55L62.7748 144.711L73.0907 147.285L77.323 130.306C80.1412 131.071 82.8761 131.777 85.5536 132.442L81.3355 149.34L91.6638 151.914L95.9371 134.785C113.548 138.118 126.79 136.774 132.364 120.845C136.856 108.02 132.141 100.623 122.876 95.7989C129.624 94.2425 134.707 89.8041 136.062 80.6355L136.059 80.6332L136.058 80.6342ZM112.462 113.723C109.27 126.548 87.6766 119.615 80.6758 117.877L86.3471 95.1415C93.3475 96.8891 115.797 100.348 112.462 113.723H112.462ZM115.656 80.4483C112.744 92.1139 94.7718 86.1873 88.9417 84.734L94.0836 64.1146C99.9137 65.5679 118.689 68.2803 115.657 80.4483H115.656Z" fill="white"/>
</svg>
