<svg width="49" height="50" viewBox="0 0 49 50" fill="none" xmlns="http://www.w3.org/2000/svg">
<path d="M24.4062 49.2891C27.7188 49.2891 30.8359 48.6562 33.7578 47.3906C36.6797 46.1406 39.2578 44.3984 41.4922 42.1641C43.7266 39.9297 45.4766 37.3516 46.7422 34.4297C48.0078 31.5078 48.6406 28.3906 48.6406 25.0781C48.6406 21.7656 48.0078 18.6484 46.7422 15.7266C45.4766 12.8047 43.7266 10.2344 41.4922 8.01562C39.2578 5.78125 36.6797 4.03125 33.7578 2.76562C30.8359 1.5 27.7109 0.867188 24.3828 0.867188C21.0703 0.867188 17.9531 1.5 15.0312 2.76562C12.125 4.03125 9.55469 5.78125 7.32031 8.01562C5.10156 10.2344 3.35938 12.8047 2.09375 15.7266C0.828125 18.6484 0.195312 21.7656 0.195312 25.0781C0.195312 28.3906 0.828125 31.5078 2.09375 34.4297C3.35938 37.3516 5.10156 39.9297 7.32031 42.1641C9.55469 44.3984 12.1328 46.1406 15.0547 47.3906C17.9766 48.6562 21.0938 49.2891 24.4062 49.2891ZM21.8047 36.6328C21.3516 36.6328 20.9453 36.5391 20.5859 36.3516C20.2266 36.1641 19.875 35.8594 19.5312 35.4375L13.7891 28.4531C13.5859 28.1875 13.4297 27.9141 13.3203 27.6328C13.2109 27.3516 13.1562 27.0625 13.1562 26.7656C13.1562 26.1719 13.3594 25.6641 13.7656 25.2422C14.1875 24.8047 14.6953 24.5859 15.2891 24.5859C15.6641 24.5859 16 24.6641 16.2969 24.8203C16.5938 24.9766 16.8984 25.25 17.2109 25.6406L21.7109 31.3594L31.4141 15.8438C31.9141 15.0312 32.5469 14.625 33.3125 14.625C33.8906 14.625 34.4062 14.8125 34.8594 15.1875C35.3281 15.5625 35.5625 16.0547 35.5625 16.6641C35.5625 16.9297 35.5 17.2109 35.375 17.5078C35.25 17.7891 35.1094 18.0547 34.9531 18.3047L23.9844 35.4141C23.7031 35.8203 23.375 36.125 23 36.3281C22.6406 36.5312 22.2422 36.6328 21.8047 36.6328Z" fill="black" fill-opacity="0.9"/>
</svg>
