<svg width="200" height="200" viewBox="0 0 200 200" fill="none" xmlns="http://www.w3.org/2000/svg">
<path d="M100 200C155.228 200 200 155.228 200 100C200 44.7715 155.228 0 100 0C44.7715 0 0 44.7715 0 100C0 155.228 44.7715 200 100 200Z" fill="#988430"/>
<path d="M100 196.793C153.46 196.793 196.797 153.455 196.797 99.9961C196.797 46.5367 153.46 3.19928 100 3.19928C46.5409 3.19928 3.20361 46.5367 3.20361 99.9961C3.20361 153.455 46.5409 196.793 100 196.793Z" fill="#7A6A2A"/>
<path d="M100 194.762C152.333 194.762 194.757 152.338 194.757 100.005C194.757 47.6717 152.333 5.24741 100 5.24741C47.6671 5.24741 5.24292 47.6717 5.24292 100.005C5.24292 152.338 47.6671 194.762 100 194.762Z" fill="#BA9F33"/>
<path fill-rule="evenodd" clip-rule="evenodd" d="M43.7212 89.3263C43.1548 88.809 42.5564 88.2906 42.006 87.7733C41.4556 87.2559 40.8903 86.7376 40.3239 86.2202L38.6407 84.6203C38.3655 84.3451 38.0743 84.103 37.7991 83.8267C37.5239 83.5846 37.2007 83.3094 36.9255 83.0662C34.6919 80.9468 32.4455 78.8274 30.2428 76.7069C32.5244 78.7943 34.758 80.8668 37.0396 82.9851L37.8322 83.7787C38.1074 84.0528 38.3986 84.296 38.6738 84.5712L40.3559 86.1242C40.9223 86.6416 41.4727 87.16 42.0391 87.7242C42.6055 88.2884 43.1559 88.8079 43.7223 89.3242L43.7212 89.3263ZM14.0775 89.0063C14.0775 89.0063 22.2002 89.8468 26.165 90.4132C29.8375 90.9316 41.3266 92.6947 41.3266 92.6947L14.0775 89.0063ZM14.0775 89.0063C16.3591 89.2004 18.6407 89.4425 20.9223 89.6857C22.0871 89.7988 23.2039 89.9279 24.3207 90.0409L26.0348 90.2361C26.6012 90.3161 27.1516 90.3972 27.718 90.4782L34.5148 91.562L37.9122 92.1283C39.029 92.3225 40.1458 92.5337 41.3106 92.7278C40.1938 92.6147 39.029 92.4526 37.9122 92.2905L34.5148 91.8051L27.718 90.8025C27.1516 90.7214 26.6012 90.6073 26.0348 90.5273L24.3196 90.33C23.2028 90.2169 22.038 90.0548 20.9212 89.9247C18.6396 89.6505 16.358 89.3583 14.0764 89.0031L14.0775 89.0063ZM40.518 94.8109C40.518 94.8109 31.845 97.0125 28.9159 97.854C26.0359 98.6465 17.3138 101.3 17.3138 101.3L40.517 94.812L40.518 94.8109Z" fill="#CFB66C"/>
<path fill-rule="evenodd" clip-rule="evenodd" d="M40.5175 94.801C38.5922 95.3674 36.6775 95.9178 34.7245 96.4362L28.9314 97.9892C27.0061 98.5556 25.0914 99.106 23.1714 99.6724L20.2914 100.465C19.3367 100.74 18.3661 100.982 17.3794 101.259C18.333 100.939 19.3047 100.611 20.2594 100.336L23.1394 99.4143C25.0647 98.8148 26.9794 98.2484 28.8994 97.65C30.8567 97.1647 32.7831 96.6463 34.7405 96.177C36.6007 95.7076 38.5591 95.2394 40.5175 94.802V94.801ZM18.5282 106.63C19.4818 106.274 30.4855 101.146 33.0423 99.9476C34.3223 99.3482 38.0429 98.0276 38.0429 98.0276L18.5282 106.63Z" fill="#CFB66C"/>
<path fill-rule="evenodd" clip-rule="evenodd" d="M18.5282 106.632C19.3687 106.312 20.1623 105.92 20.9708 105.548L23.3655 104.431L28.1719 102.118C29.7719 101.357 31.3271 100.518 32.9772 99.8032C33.8188 99.448 34.6604 99.1568 35.501 98.8816L36.781 98.4774C37.2172 98.3643 37.6226 98.2342 38.061 98.1212C36.461 98.8816 34.7767 99.5291 33.1746 100.272C31.5746 101.066 29.9383 101.713 28.2871 102.425L23.4007 104.576C21.7602 105.241 20.1602 105.952 18.5271 106.632H18.5282ZM19.5948 111.111C19.5948 111.111 29.5618 105.271 32.9922 103.393C34.7884 102.391 40.5975 99.5099 40.5975 99.5099L19.5948 111.111Z" fill="#CFB66C"/>
<path fill-rule="evenodd" clip-rule="evenodd" d="M19.5955 111.12C21.2776 110.085 22.9928 109.033 24.708 107.965L27.2681 106.411C28.1417 105.894 28.9833 105.408 29.874 104.891C30.7476 104.373 31.5892 103.855 32.4788 103.37C32.9023 103.109 33.346 102.881 33.8057 102.691L35.1647 102.011C36.961 101.137 38.7572 100.247 40.6506 99.4863C38.9354 100.571 37.1711 101.494 35.4079 102.447C34.5343 102.933 33.6436 103.37 32.77 103.855C31.8964 104.341 31.0548 104.859 30.1641 105.328C29.2905 105.846 28.4489 106.331 27.5593 106.8L24.9214 108.24L19.5976 111.12H19.5955ZM40.5172 100.796C40.5172 100.796 34.3199 105.553 32.3134 107.075C30.307 108.596 24.4008 112.868 24.4008 112.868L40.5172 100.796V100.796Z" fill="#CFB66C"/>
<path fill-rule="evenodd" clip-rule="evenodd" d="M76.0845 139.157L72.9133 133.154L74.7576 125.645L87.9128 120.565L82.3139 109.077L85.0808 97.4748L90.2755 87.0855L106.328 84.5617L118.123 73.3159L143.593 75.2412L148.592 102.474L138.965 136.762L133.48 154.514L111.246 155.355L100.923 148.203L88.8355 143.154L76.0845 139.157Z" fill="#E2CC85"/>
<path fill-rule="evenodd" clip-rule="evenodd" d="M115.081 138.966C115.081 138.966 112.006 140.374 106.761 140.05C105.243 138.011 94.613 137.057 94.613 137.057C94.613 137.057 93.2861 136.652 90.9394 137.623C88.5778 138.583 86.3442 138.465 84.2568 138.982C82.1693 139.499 80.0968 136.781 78.4968 136.215C76.8968 135.617 74.7752 134.177 74.7752 134.177L70.2952 133.739L61.2989 129.937L47.0067 115.698L43.1229 121.778L41.925 129.302L46.2461 138.218L57.8802 148.817L80.5661 154.577L94.0125 150.615L110.857 143.495L115.081 138.965V138.966Z" fill="#F1D789"/>
<path fill-rule="evenodd" clip-rule="evenodd" d="M34.4816 88.6399L37.3616 79.919L40.7931 74.2871L51.844 73.3644L48.5266 83.041L39.288 99.4813L43.1228 114.157L36.3269 117.555L34.2383 114.351L32.5562 107.005L32.4431 98.7528L34.4816 88.6399Z" fill="#F4ECB4"/>
<path fill-rule="evenodd" clip-rule="evenodd" d="M46.8766 138.36L44.7572 135.399C44.7572 135.399 44.1908 133.991 44.515 132.761C44.835 131.515 44.7892 131.434 44.6281 130.965C44.467 130.496 43.107 128.878 43.1881 127.486C43.2681 126.078 43.075 125.608 44.1097 124.493C45.1934 123.409 44.8702 121.531 44.8702 121.531L46.2782 122.405L46.5982 121.92C46.5982 121.92 47.1156 122.324 47.1156 122.955C47.2286 122.082 46.7593 118.036 47.827 117.114C48.8948 116.193 50.7881 121.434 50.7881 121.434L49.6233 113.829L46.6292 106.031L41.3054 98.9106L40.9854 91.0621V90.3826C40.9854 90.3826 38.5417 94.1373 37.8622 97.1026C37.3769 99.141 38.5417 101.617 38.2996 104.546C38.1044 107.459 37.8622 107.232 38.5737 108.386C39.2852 109.54 41.0174 111.913 40.338 113.628C39.7396 115.102 37.7001 114.066 37.7001 114.066C37.7001 114.066 37.2958 115.263 36.7454 115.7C36.5513 114.988 36.3412 114.535 35.9529 114.1C35.9198 114.375 35.8398 114.747 35.8398 114.747C35.8398 114.747 35.4836 113.631 35.1273 112.223C34.643 110.346 34.1246 107.871 33.6553 106.544C33.4612 107.304 32.9758 109.618 32.9758 109.618L33.251 113.178L34.578 118.065L35.858 121.265L37.1038 125.181L38.1865 127.811L39.0601 129.817L39.8206 134.333L43.4932 138.215L45.4516 139.09L46.8745 138.361L46.8766 138.36Z" fill="#F3E19D"/>
<path fill-rule="evenodd" clip-rule="evenodd" d="M36.4072 81.5161C36.4072 81.5161 33.7693 85.996 33.0099 90.5122C32.2504 95.0284 31.5698 99.8006 32.0498 105.949C32.5352 112.147 33.4579 115.949 34.2024 118.668C35.4824 123.183 38.7977 129.461 38.7977 129.461L38.9107 129.218C38.3535 128.162 37.9087 127.05 37.5838 125.901C37.1464 124.185 36.9843 122.147 36.58 121.224C36.2238 120.303 35.6254 119.509 35.3341 118.376C35.0589 117.293 35.0141 115.577 34.1693 114.3C33.8131 113.781 33.3757 112.422 33.2467 111.063C33.0845 109.024 33.3277 106.742 33.1336 104.866C32.7773 101.743 32.5352 99.6236 32.8584 97.9884C33.1816 96.3532 34.8659 91.7112 35.9016 88.0216C36.5811 85.659 36.1758 83.6686 37.4216 81.6132C38.6675 79.5748 39.4291 77.7786 39.7033 76.5327C40.0233 75.3999 36.403 81.5161 36.403 81.5161H36.4072Z" fill="#F2E8B0"/>
<path fill-rule="evenodd" clip-rule="evenodd" d="M48.9162 79.7338C48.9162 79.7338 47.5573 80.1392 46.9098 80.8506C46.2623 81.5301 45.9871 82.0965 45.1135 83.2453C44.2399 84.3941 44.1908 85.3328 43.4782 86.7728C42.7668 88.1808 41.1966 90.3003 41.0025 91.0609C40.8083 91.8214 40.4851 95.3809 40.0808 97.0641C39.7246 98.7473 40.4851 100.819 40.4851 100.819L41.4067 100.624C41.4067 100.624 41.4067 101.821 42.3294 102.631C43.251 103.424 43.4132 99.9441 43.4132 99.9441L46.8597 88.3099L52.0534 84.7824L52.6198 81.9344L48.9141 79.7338H48.9162Z" fill="#F5EEC0"/>
<path fill-rule="evenodd" clip-rule="evenodd" d="M51.4404 84.9907C51.4404 84.9907 48.9968 85.1518 47.8 86.0265C47.3147 86.3817 47.1205 86.6729 46.6032 87.1102C45.6486 87.9028 44.6769 88.6314 44.2086 89.6703C43.6902 90.705 43.1238 92.2752 42.7356 95.2364C42.5734 96.4823 42.5734 97.6311 42.4604 98.6349C42.2983 99.9939 42.0561 101.078 42.1852 101.835C42.3473 103.388 43.9494 104.198 44.1051 105.961L47.4224 104.279L50.5455 91.9637L57.18 87.8036L53.4254 83.5965L51.4362 84.9832L51.4404 84.9907Z" fill="#E6DB9D"/>
<path fill-rule="evenodd" clip-rule="evenodd" d="M33.9386 167.916C33.9524 167.795 33.9663 167.673 33.9802 167.548C34.4644 163.388 34.5466 160.235 34.9018 158.261C35.4191 155.462 35.7754 154.421 35.6943 153.373C35.5813 151.691 35.4522 150.461 35.6143 149.166C35.8565 147.451 37.5397 145.413 37.4917 144.005C37.4586 142.888 36.8922 142.16 36.4069 141.481C35.9215 140.802 35.5333 140.235 35.5333 140.235C35.5333 140.235 38.8506 137.954 38.8186 128.762C38.8864 128.781 38.9516 128.808 39.0128 128.843L40.6469 133.486L41.7637 134.845L46.0518 142.839L51.5697 148.196L59.7245 153.68L64.8381 159.245L65.3555 174.084L58.6727 182.757L57.5783 184.739C48.8835 180.374 40.9104 174.7 33.9375 167.915L33.9386 167.916Z" fill="#E5CB7A"/>
<path fill-rule="evenodd" clip-rule="evenodd" d="M54.3535 182.127C54.3535 182.127 54.4666 180.282 55.9876 179.085C56.2308 179.489 56.3919 179.878 56.3439 180.168C56.6191 179.684 58.5444 176.577 62.8974 175.767C67.2504 174.975 68.3022 171.803 68.3022 171.803L77.5405 163.406L88.1068 153.681L100.955 149.166L106.959 147.693C106.959 147.693 107.072 148.13 106.846 149.101C107.961 149.021 110.437 148.454 113.01 147.547C114.046 147.143 115.017 146.981 115.535 147.515C116.295 148.227 116.408 149.91 116.456 150.913C117.702 150.638 119.142 149.441 120.296 149.554C122.142 149.748 123.776 151.917 125.653 151.917C128.129 151.917 129.244 150.395 130.977 149.198C132.012 148.486 133.5 147.598 134.342 146.997C136.348 145.524 157.578 139.035 157.578 139.035L165.021 139.521L166.219 147.514L165.579 168.41C165.5 168.486 165.421 168.565 165.341 168.641L131.498 186.317L84.5868 193.508C74.0784 191.791 63.9377 188.303 54.5967 183.192L54.3567 182.126L54.3535 182.127Z" fill="#D8C173"/>
<path fill-rule="evenodd" clip-rule="evenodd" d="M36.7844 170.58C37.4511 169.186 38.0506 168.02 38.1562 167.603C38.2394 168.444 38.3919 170.288 38.6991 172.249C38.0541 171.7 37.4159 171.144 36.7844 170.579V170.58Z" fill="#F1D789"/>
<path fill-rule="evenodd" clip-rule="evenodd" d="M71.0529 190.239L77.1201 188.551L77.6374 188.713C77.6374 188.713 77.9126 188.875 77.9126 189.425C78.6731 188.989 79.3206 189.069 79.7899 188.778C80.0321 189.296 80.2742 191.011 81.343 191.221C82.4587 191.464 83.6566 190.736 84.8705 189.814C86.0673 188.859 87.4305 187.662 88.4619 187.176C88.8404 187.872 89.1756 188.591 89.4657 189.328C90.8246 188.244 93.1873 183.843 96.5526 183.923C97.5253 181.624 99.1503 179.661 101.227 178.276C104.35 176.156 106.307 175.994 108.751 176.188C109.722 174.928 110.918 173.858 112.278 173.033C112.683 173.195 113.8 173.875 115.192 173.227C116.6 172.581 118.185 170.072 120.272 169.749C121.397 169.594 122.541 169.834 123.508 170.428C123.508 170.428 129.588 164.392 133.784 162.386C133.621 161.9 133.298 160.072 138.217 156.026C138.492 156.269 138.298 156.949 138.492 156.986C138.572 156.986 139.772 156.469 141.291 155.303C143.168 153.896 145.417 152.423 146.776 152.019C149.336 151.258 152.051 152.811 152.051 152.811C152.282 152.649 152.54 152.529 152.812 152.455C153.458 152.342 153.928 152.261 154.284 152.135C154.252 152.977 154.721 154.417 154.284 155.662C154.79 155.947 155.327 156.175 155.884 156.342C155.61 156.94 155.01 158.461 154.008 159.19C154.848 159.594 154.961 160.064 156.159 160.47C155.674 161.149 154.879 162.315 154.525 163.03C154.169 163.79 152.89 166.946 152.323 168.143C151.725 169.34 150.916 171.541 150.527 171.983C150.138 172.424 148.731 174.296 147.647 175.218C148.607 174.862 152.534 173.665 154.201 173.211C153.705 173.939 151.19 177.669 148.773 181.256C137.201 188.193 124.282 192.583 110.879 194.135C97.4766 195.686 83.8969 194.364 71.0454 190.255L71.0529 190.239Z" fill="#E0CD81"/>
<path fill-rule="evenodd" clip-rule="evenodd" d="M51.8405 84.554C51.8405 84.554 50.4336 84.554 50.1584 84.7482C49.8832 84.9423 51.5664 85.3476 52.0837 85.5418C52.601 85.7359 53.7179 86.6255 54.0091 87.338C54.2843 88.0175 64.1222 91.9812 64.1222 91.9812L71.0801 91.625L73.4791 88.3108L68.9159 84.314L72.1159 74.8804L67.8769 75.5599L57.6827 81.6399L52.569 83.5983L51.8405 84.554Z" fill="#DFC57C"/>
<path fill-rule="evenodd" clip-rule="evenodd" d="M67.1202 87.6798C67.2208 87.8427 67.3625 87.9762 67.531 88.067C67.6995 88.1578 67.8889 88.2027 68.0802 88.1971C69.5202 88.1971 70.8461 88.5534 71.3965 89.2809C72.3191 90.4467 74.8759 94.1683 74.8759 94.1683L80.9922 96.3689L81.3869 89.1667L74.7042 84.5235L67.0989 87.3225V87.6787H67.1159L67.1202 87.6798Z" fill="#E5CC7C"/>
<path fill-rule="evenodd" clip-rule="evenodd" d="M65.9197 90.3565C65.9197 90.3565 67.0354 90.4376 68.4434 89.9192C69.8514 89.4008 72.165 88.285 73.1688 88.7224C74.5757 89.3208 74.2845 91.1981 75.8066 92.8824C76.7282 93.9181 78.4114 93.8861 79.3661 95.0029C80.3208 96.1197 83.605 95.6013 83.605 95.6013L84.8509 102.321L79.8514 108.73L78.2162 116.69H71.4557L65.2797 114.24L62.2375 106.88L63.7586 99.437L65.9197 90.3565Z" fill="#D2C281"/>
<path fill-rule="evenodd" clip-rule="evenodd" d="M78.9971 90.6769C79.1648 90.7285 79.339 90.7558 79.5145 90.7579C79.3203 90.92 78.915 91.2752 79.0771 92.1979C79.2393 93.1205 79.7566 94.2852 79.3203 94.9967C79.6686 95.3775 79.9283 95.8306 80.0809 96.3236C80.3561 97.1171 80.4371 97.8446 82.2323 97.9587C81.9733 98.1182 81.7344 98.3084 81.5209 98.5251C81.5209 98.5251 82.7667 99.6088 83.3982 100.611C84.0446 100.584 85.7598 100.05 85.7598 100.05L86.1161 100.294L86.8766 99.9736C86.8766 99.9736 86.1651 99.6984 86.6825 97.9672C87.1678 96.4462 87.6051 96.5273 87.6425 96.4142C87.6798 96.3012 87.9987 94.6991 87.9987 94.0517C88.2409 93.2112 88.435 90.6545 88.435 90.6545L87.9177 85.0077L85.0057 83.2435L82.6377 80.9578L80.4041 85.1645L78.9331 86.6311L78.8201 90.2715L78.9971 90.6769Z" fill="#E2C270"/>
<path fill-rule="evenodd" clip-rule="evenodd" d="M86.0032 85.957C86.0032 85.957 86.5205 87.429 86.7157 88.5618C86.7845 88.3416 86.8225 88.1129 86.8288 87.8823C86.8288 87.8823 87.233 90.1159 87.313 91.0386C87.4752 91.0055 87.633 90.9575 87.6693 91.1186C87.7056 91.2796 88.0746 93.077 87.9893 94.0796C88.6631 92.968 89.5955 92.0356 90.7072 91.3618C91.3546 90.9564 92.1152 90.5202 92.9088 90.4871C94.1546 90.4551 95.0602 91.2807 96.5493 91.2807C100.141 91.2807 103.394 88.6428 105.789 87.8343C107.552 87.2348 109.073 86.7986 110.141 85.8268C110.659 85.3906 111.582 84.4199 112.422 82.9788C113.539 81.0588 114.704 79.3874 115.87 79.1772C115.342 79.2742 114.806 79.3121 114.27 79.2903C114.27 79.2903 114.626 78.934 115.23 78.4487C115.834 77.9634 116.557 77.365 117.591 77.365C119.437 77.365 120.358 77.6391 121.394 77.6391C122.43 77.6071 123.028 77.365 123.028 77.365C123.028 77.365 124.113 78.1255 126.556 78.1255C128.999 78.1575 130.634 78.3676 131.913 78.4818C133.191 78.5959 137.478 78.1255 138.708 78.1618C139.51 78.1927 140.297 78.3853 141.023 78.7282L137.058 67.2082L122.816 54.7602L114.337 60.7634L101.294 73.8055L88.673 78.4818L86.0352 81.4428V85.957H86.0032Z" fill="#CCB360"/>
<path fill-rule="evenodd" clip-rule="evenodd" d="M114.32 79.344C114.32 79.344 114.677 78.9888 115.274 78.5035C115.871 78.0181 116.602 77.4187 117.637 77.4187C119.481 77.4187 120.404 77.6939 121.439 77.6939C122.475 77.6619 123.074 77.4187 123.074 77.4187C123.074 77.4187 124.159 78.1781 126.601 78.1781C129.045 78.2101 130.679 78.4203 131.958 78.5333C133.237 78.6464 137.524 78.1781 138.754 78.2133C139.556 78.2435 140.343 78.4362 141.068 78.7797L139.271 73.5851L137.185 69.6213L131.229 63.0997C131.229 63.0997 124.083 58.8928 124.028 58.8608C123.996 58.8288 121.552 58.1813 121.552 58.1813L115.08 62.0971L109.207 77.2917L109.094 80.4917L112.895 82.288C113.85 80.688 114.903 79.408 115.889 79.2459C114.999 79.3429 114.319 79.3429 114.319 79.3429L114.32 79.344Z" fill="#D5B457"/>
<path fill-rule="evenodd" clip-rule="evenodd" d="M114.24 80.4453C113.673 80.4773 113.205 80.3643 113.075 79.96C112.59 78.6011 112.201 78.4069 111.795 78.4069C111.389 78.4069 110.84 79.2805 110.515 79.3605C110.19 79.4405 109.804 78.3579 109.804 78.3579L109.447 78.1957C109.447 78.1957 107.36 79.5547 105.888 81.1568C104.416 82.7589 102.004 85.4779 100.921 85.9621C99.8371 86.4464 96.1145 86.6096 94.841 86.8848C93.5674 87.16 92.1552 88.0827 91.9611 88.2928C91.767 88.5029 92.5286 88.7291 92.6416 88.9392C92.7547 89.1333 91.3947 89.0523 91.2817 89.2592C91.2017 89.4213 91.6017 90.3429 91.8001 90.8123C92.1472 90.6397 92.5281 90.5457 92.9157 90.5371C94.1616 90.5051 95.0682 91.3307 96.5561 91.3307C100.149 91.3307 103.401 88.6928 105.795 87.8832C107.559 87.2848 109.08 86.8475 110.148 85.8768C110.665 85.4405 111.588 84.4688 112.43 83.0288C113.044 82.0421 113.643 81.1195 114.243 80.44L114.24 80.4453Z" fill="#D2B257"/>
<path fill-rule="evenodd" clip-rule="evenodd" d="M62.7194 160.522C62.7194 160.522 62.3994 159.325 59.434 156.234C58.5924 155.361 58.0751 154.634 57.5087 154.115C56.1007 152.787 55.2751 152.432 54.2724 151.671C52.0718 150.037 49.6771 150.037 47.8328 148.03C45.9886 146.024 43.8392 142.19 42.3459 138.272C40.8738 134.356 40.4685 133.111 40.4685 132.998C40.4685 132.884 40.8738 132.124 41.3912 132.237C41.9085 132.35 41.9085 133.353 42.0387 133.596C42.2964 133.993 42.5887 134.366 42.9123 134.712C43.6728 135.586 44.7566 136.632 45.307 138.191C45.1939 136.864 44.7406 135.392 44.7406 135.392C44.7406 135.392 47.5886 137.189 50.0153 139.065C52.459 140.942 53.4617 141.59 54.1753 142.787C54.8889 143.983 56.57 147.14 57.3754 148.062C58.1807 148.985 69.2155 152.464 69.2155 152.464L74.4646 156.377L77.0705 162.089L75.031 165.289L71.1152 166.131L64.7557 163.283L62.7194 160.521V160.522Z" fill="#D2B159"/>
<path fill-rule="evenodd" clip-rule="evenodd" d="M48.5925 140.839C48.5925 140.839 49.9195 142.959 53.1557 144.965C56.0688 146.73 60.68 148.332 64.7909 149.286C67.1525 149.853 69.5152 150.289 71.6347 150.322C77.3467 150.402 81.2784 148.769 86.1499 148.235C88.7877 147.959 92.024 147.749 95.3893 146.955C99.7093 145.919 102.266 144.753 105.746 143.115C108.269 141.95 110.584 141.076 112.46 139.959C115.098 138.406 117.023 136.675 119.257 136.158C118.982 136.918 118.691 138.277 116.49 139.685C117.655 139.652 119.257 139.572 119.257 139.572C119.257 139.572 117.704 140.494 114.969 142.565C113.286 143.845 111.053 146.012 108.772 147.452C107.299 148.374 105.697 149.052 104.645 149.604C102.085 151.012 101.052 151.724 99.3701 153.444C99.9685 153.412 100.018 153.444 100.018 153.444C100.018 153.444 97.8971 153.719 96.3771 154.528C96.0571 154.528 95.5024 154.415 94.5317 154.69C93.7712 154.932 92.7675 155.484 91.7328 155.774C90.2597 156.211 89.7755 156.017 89.7755 156.017L90.0176 156.502C90.0176 156.502 88.0976 156.469 87.4576 156.534C87.5707 156.566 87.5387 156.615 87.5387 156.615C87.4262 156.634 87.318 156.673 87.2187 156.728C86.9107 156.928 86.5719 157.075 86.216 157.165C86.0219 157.197 85.8597 157.197 85.6165 157.246C85.6976 157.44 86.3291 158.526 86.6203 159.166C86.3781 159.328 82.7365 162.079 82.7365 162.079C82.8495 162.257 82.9418 162.447 83.0117 162.645C83.1248 163 83.1739 163.519 83.2869 163.761C83.5611 164.246 83.7232 164.327 83.7232 164.327C83.7232 164.327 83.2869 164.408 82.5253 164.603C81.8789 164.765 81.0853 165.039 79.9653 165.201C79.6217 165.246 79.276 165.273 78.9296 165.282C79.0917 165.638 79.8032 166.997 78.4923 168.566C77.1813 170.135 76.7771 170.364 76.3728 171.366C76.1693 171.212 75.9526 171.077 75.7253 170.961C75.2891 170.767 74.6896 170.477 74.4795 170.087C74.357 170.606 74.1947 171.115 73.9941 171.608C73.5899 172.692 72.9915 173.761 72.8784 174.57C72.4411 174.084 71.6325 173.13 70.5157 173.324C69.3989 173.518 68.5093 175.039 68.3152 175.476C68.3152 175.201 68.1211 174.991 68.0731 175.314C68.04 175.67 67.4256 179.391 63.9952 182.401C63.9632 181.64 63.9632 179.957 63.8821 179.408C63.5621 179.728 63.1707 180.2 60.84 181.204C58.5584 182.207 58.92 183.211 58.92 183.211C58.92 183.211 58.7259 181.611 59.9557 179.925C61.2016 178.243 61.9621 177.45 61.9621 177.32C61.942 177.189 61.8859 177.066 61.8 176.964C61.6379 176.802 61.3147 176.608 61.3147 176.479C61.5088 176.399 63.4341 175.476 63.3211 173.566C63.208 171.852 62.4805 170.961 61.9621 170.331C61.8821 170.25 62.7237 169.651 62.6096 169.457C62.5285 169.344 61.4939 168.582 61.3637 168.177C61.3943 167.935 61.4486 167.697 61.5259 167.466C61.6389 167.109 61.72 166.866 61.688 166.624C61.6069 166.22 61.1696 165.103 61.0405 164.99C61.1536 165.022 61.9621 164.99 61.9621 164.99C61.9621 164.99 61.3157 163.954 61.2016 163.469C61.0875 162.983 60.8453 161.704 60.7163 161.462C60.9915 161.494 61.6709 161.542 61.6709 161.462C61.704 161.219 61.0725 160.815 61.3509 160.502C61.5451 160.534 61.9173 160.696 62.2725 161.15C62.0784 160.631 61.7552 159.629 61.0747 159.224C61.3947 159.111 62.4827 158.819 63.4373 159.386C64.392 159.952 64.7173 160.744 64.7173 160.744C64.7173 160.744 65.2837 161.182 66.1584 161.829C67.1611 162.622 68.4389 163.749 70.4784 164.547C70.9157 164.79 72.0315 164.79 72.8411 164.628C73.1936 164.544 73.5315 164.408 73.8437 164.224C73.9565 164.158 74.0759 164.103 74.2 164.062C74.0261 163.713 73.826 163.377 73.6016 163.058C73.8768 163.058 74.2 163.091 74.2 163.091C74.2 163.091 74.3941 162.654 73.5205 161.811C73.7147 161.617 73.9579 161.491 73.9579 161.164C73.6827 161.132 73.1973 160.727 73.0843 160.565C73.2453 160.452 73.4885 160.08 73.7637 159.967C73.5205 159.773 72.9221 158.963 72.6469 158.883C72.9098 158.786 73.1642 158.666 73.4075 158.527C73.4075 158.527 72.0485 158.171 71.6112 157.879C71.1739 157.559 70.5275 157.006 70.1392 156.844C69.7339 156.682 69.0224 156.602 68.7312 156.277C69.0053 156.358 69.4427 156.277 69.7669 156.277C70.0091 156.277 70.1232 156.309 70.2032 156.309C70.1712 156.196 70.1712 155.953 70.8027 155.873C71.1064 155.827 71.4011 155.734 71.6763 155.598C71.6763 155.598 71.0768 155.566 70.3963 154.918C69.7157 154.271 69.1504 153.754 68.7621 153.672C68.3579 153.591 67.5973 153.948 67.128 153.915C66.4805 153.835 66.2053 153.51 66.2053 153.51C66.2053 153.51 64.0539 153.704 59.2805 150.792C55.1536 148.268 53.3573 146.035 53.3573 146.035C52.9711 145.895 52.5978 145.722 52.2416 145.517C50.6885 144.708 48.536 143.025 48.6011 140.823L48.5925 140.839Z" fill="#C2A44D"/>
<path fill-rule="evenodd" clip-rule="evenodd" d="M108.122 43.716C108.496 43.8376 108.829 44.0619 109.082 44.3634C109.842 45.237 110.328 46.8872 108.596 48.6514C109.276 48.8936 109.556 48.9714 110.149 48.8936C109.551 49.6061 108.192 51.1272 108.111 52.4541C108.03 53.5378 108.709 53.8621 108.709 53.8621C108.709 53.8621 107.674 55.0589 107.626 57.0621C108.115 56.5105 108.65 56.0017 109.226 55.541C110.424 54.5864 112.074 53.5026 113.191 52.8232C113.175 53.108 113.214 53.3931 113.304 53.6637C113.304 53.6637 115.39 51.9485 117.144 52.7101C117.936 53.0664 117.58 54.1821 117.58 54.1821C117.58 54.1821 118.665 53.7778 119.425 54.5384C120.186 55.2989 121.261 57.2605 121.813 58.021C122.055 58.3773 122.686 59.0568 123.333 60.1085C124.216 61.581 124.953 63.1361 125.534 64.7517C125.566 63.9101 125.776 62.6002 128.172 63.4248C130.567 64.2664 133.285 66.0306 135.566 69.5048C137.848 72.9789 138.413 76.901 139.562 78.3944C140.727 79.8344 141.925 82.229 142.006 83.2328C142.087 84.2365 141.65 87.4717 144.045 96.2258C144.724 93.508 145.76 87.4717 145.76 87.4717L146.326 82.148L146.974 65.6754L129.772 51.3853L116.326 41.6274L107.571 42.469L108.121 43.7149L108.122 43.716Z" fill="#CAA13E"/>
<path fill-rule="evenodd" clip-rule="evenodd" d="M140.081 68.2413C140.081 68.2413 139.838 66.6413 135.793 63.9213C131.747 61.2354 128.592 61.2354 125.68 58.9538C123.446 57.1576 121.117 53.0306 119.6 51.6717C118.127 50.3288 117.885 46.445 117.885 46.445L122.852 42.285L130.24 31.6066L136.485 24.7298L139.478 28.8898L143.638 33.7762L145.952 43.5821L146.793 57.9352L140.073 68.2424L140.081 68.2413Z" fill="#B59544"/>
<path fill-rule="evenodd" clip-rule="evenodd" d="M145.082 85.4315C145.204 83.2549 144.935 81.0739 144.288 78.9921C143.221 75.6747 140.891 69.7846 139.808 67.5787C139.371 65.135 139.695 64.9409 140.164 64.6657C140.633 64.3905 142.398 63.3857 143.364 59.8603C144.331 56.335 147.329 56.2198 147.329 56.2198L149.173 54.8609L151.973 61.8667L154.416 68.1942L155.177 73.0326L155.743 77.1585L154.416 85.8806L147.863 91.8027L145.08 85.4315H145.082Z" fill="#C89D3A"/>
<path fill-rule="evenodd" clip-rule="evenodd" d="M53.6423 182.656V182.477C53.7785 182.392 53.8987 182.283 53.9975 182.157C54.1106 181.995 54.1927 181.801 54.2727 181.753C54.4349 181.671 55.1954 181.433 55.5997 181.509C56.0039 181.586 57.0727 182.027 57.6391 181.995C58.8039 181.963 60.1629 181.072 62.3154 181.477C65.5517 182.076 66.3122 184.276 68.1895 185.522C69.4695 186.397 70.7943 186.008 70.9885 186.008H71.4247C71.5058 186.008 72.1042 185.328 72.4285 185.361C73.0759 185.393 73.1399 185.928 73.5442 185.96C74.4989 186.073 76.3442 185.474 77.2669 185.717C77.5405 185.803 77.7893 185.954 77.9921 186.156C78.1949 186.359 78.3457 186.608 78.4317 186.881C78.6258 187.48 78.4637 188.24 77.9943 188.678C76.9917 189.599 76.037 190.474 75.8429 191.238C76.0898 191.426 76.3269 191.627 76.5533 191.839C68.5471 189.799 60.844 186.715 53.6423 182.666V182.656Z" fill="#CEB052"/>
<path fill-rule="evenodd" clip-rule="evenodd" d="M139.805 150.327C139.805 150.327 142.329 146.962 143.204 145.295C144.078 143.576 140.437 121.816 140.437 121.816L147.751 97.8524L147.556 90.0529C147.556 90.0529 147.912 82.8519 148.754 79.7287C149.758 81.5249 152.881 83.6935 153.561 84.8423C153.881 82.6407 154.968 77.9975 154.807 73.046C155.405 73.9676 156.845 83.2401 156.845 83.2401L158.285 89.4855L160.162 96.1201L162.25 103.127L163.496 107.965L164.207 109.13L164.807 111.169L165.373 113.37L167.008 118.532L167.968 122.771L168.728 130.457C168.894 131.046 169.013 131.646 169.084 132.253C169.116 133.095 168.971 133.58 168.971 133.727C168.971 133.873 169.247 135.571 169.133 136.85C168.971 138.13 168.971 139.131 167.968 140.05C166.964 140.968 166.333 146.457 166.333 146.457L164.537 145.26C164.537 145.26 164.893 143.625 164.052 142.137C163.21 140.649 161.576 140.341 160.653 140.584C159.732 140.778 157.887 141.068 157.288 141.587C156.721 142.104 155.33 143.706 154.051 144.435C152.451 145.395 149.844 145.471 148.453 145.794C147.045 146.114 145.492 147.074 143.857 148.188C142.575 149.018 141.221 149.732 139.812 150.322V150.322L139.805 150.327Z" fill="#CCA847"/>
<path fill-rule="evenodd" clip-rule="evenodd" d="M139.805 185.677C139.805 185.677 139.912 185.746 140.118 185.859C151.614 180.473 161.914 172.838 170.411 163.406C170.318 160.131 170.198 156.774 170.066 155.531C169.792 152.893 169.986 150.207 169.905 148.654C169.824 147.101 168.95 140.773 168.546 139.139C168.108 137.505 167.266 136.695 167.138 136.695C167.025 136.728 166.344 139.771 166.344 140.535C166.344 141.3 166.182 143.141 166.182 143.611C166.069 143.578 166.021 143.291 166.021 143.173C165.859 143.578 165.665 144.29 165.584 144.371C165.502 144.452 165.697 143.692 165.584 143.53C165.47 143.367 165.264 143.448 165.308 143.044C165.328 142.804 165.365 142.567 165.421 142.333C165.421 142.333 164.936 143.044 164.581 144.856C164.225 146.653 164.225 146.702 164.096 146.863C163.982 147.058 163.335 147.704 163.302 147.948C163.27 148.384 163.901 148.821 163.949 149.063C163.981 149.469 163.383 151.345 163.189 152.263C162.995 153.182 163.076 154.981 162.869 155.904C162.707 156.746 162.549 157.231 161.995 157.586C162.4 157.667 162.788 157.78 162.788 157.78C162.788 157.78 163.354 160.175 161.914 162.214C161.397 162.926 161.268 163.25 160.717 163.898C159.633 165.094 158.791 166.458 158.71 167.344C158.654 167.082 158.616 166.817 158.597 166.55C158.597 166.55 156.915 168.509 156.202 169.626C155.281 171.066 154.002 170.984 153.642 171.341C153.283 171.697 153.205 172.343 153.322 172.862C153.002 172.942 152.401 173.056 151.995 174.302C151.801 174.948 151.316 175.582 150.555 176.017C149.795 176.452 148.872 176.583 148.403 176.696C148.807 176.81 148.969 176.81 149.163 176.939C148.921 177.343 147.804 177.974 146.558 178.784C145.313 179.544 144.713 180.66 144.406 181.389C144.086 182.068 143.613 182.506 142.853 182.587C143.173 182.781 143.646 183.233 143.889 183.379C143.532 183.46 142.929 183.46 141.85 184.383C140.717 185.322 140.329 185.597 139.811 185.678L139.805 185.677Z" fill="#C39D3C"/>
<path fill-rule="evenodd" clip-rule="evenodd" d="M117.29 193.182C117.91 192.747 118.581 192.392 119.288 192.122C121.812 191.12 124.482 190.926 125.534 190.602C126.537 190.282 127.33 189.841 128.576 189.599C128.543 189.882 128.515 190.149 128.485 190.401C124.812 191.556 121.072 192.484 117.285 193.182H117.29Z" fill="#D2BA6B"/>
<path fill-rule="evenodd" clip-rule="evenodd" d="M163.84 126.804C163.84 126.804 163.323 129.602 162.4 131.367C161.477 133.131 160.48 135.574 160.48 135.574C160.486 135.023 160.551 134.475 160.674 133.938C159.509 134.618 156.677 136.253 155.874 136.98C155.114 137.66 153.835 138.858 153.511 139.424C154.272 137.192 155.064 135.185 155.195 134.263C154.03 135.104 148.592 139.586 145.761 142.547L136.942 149.683C135.924 150.232 134.876 150.723 133.803 151.153C132.283 151.8 130.486 152.35 129.159 152.868C129.516 151.914 130.081 151.071 130.875 150.262C131.716 149.47 134.24 146.735 134.628 145.463C134.984 144.136 135.066 143.343 134.596 142.226C134.159 142.339 133.156 142.388 132.477 142.583C131.797 142.777 131.069 143.504 131.069 143.504C131.069 143.504 131.586 140.543 132.703 137.744C131.861 137.776 130.421 138.018 130.421 138.018C130.421 138.018 132.428 134.653 135.861 132.307C134.81 132.531 133.781 132.85 132.787 133.261C130.781 134.103 128.58 135.348 126.946 136.028C127.868 134.748 134.34 125.511 138.192 116.902C142.032 108.31 143.467 106.109 144.308 101.498C144.744 99.2166 144.628 95.8449 144.744 92.8252C144.858 89.8311 145.23 87.1453 144.988 85.3491C145.99 86.5949 149.745 90.1063 149.874 97.9548C149.987 105.802 146.283 116.402 142.35 122.112C143.31 122.388 145.797 122.712 148.353 118.272C150.909 113.833 150.878 112.594 151.8 110.748C151.914 111.671 151.88 111.994 151.88 111.994C151.88 111.994 155.603 107.48 157.366 101.8C157.723 104.244 158.774 106.396 157.123 110.878C155.651 114.923 153.726 115.911 153.726 115.911C153.726 115.911 154.68 115.749 156.087 114.907C156.331 115.506 156.283 116.187 156.687 116.428C157.091 116.669 157.642 117.076 157.723 117.464C158.159 116.816 158.838 115.991 159.05 115.376C158.887 116.656 158.774 122.253 159.37 125.101C160.616 124.988 161.894 124.907 162.768 122.657C162.17 124.859 162.17 126.185 162.574 128.062C163.237 127.61 163.836 126.8 163.836 126.8L163.84 126.804Z" fill="#C0993A"/>
<path fill-rule="evenodd" clip-rule="evenodd" d="M121.797 37.5987C121.797 37.5987 120.551 38.116 118.431 38.116C116.587 38.116 117.104 37.4045 114.224 37.4045C109.791 37.4045 94.3046 39.9645 91.5856 39.9283C89.8213 39.8963 97.5399 40.6888 97.5399 40.6888L117.266 40.964L121.23 40.644L122.703 37.6467L121.797 37.5987Z" fill="#A88F33"/>
<path fill-rule="evenodd" clip-rule="evenodd" d="M70.6476 76.1689C70.6476 76.1689 68.1228 78.0943 67.055 79.5673C65.9873 81.0404 65.4209 82.01 64.207 83.2079C64.492 83.2187 64.7767 83.1805 65.0486 83.0948C65.0486 83.0948 65.0486 83.4148 64.8545 83.4991C65.0223 83.4803 65.1921 83.4993 65.3515 83.5547C65.511 83.61 65.6561 83.7004 65.7761 83.8191C65.4198 84.0132 64.4492 84.9849 65.2097 86.1337C65.7761 87.0073 66.974 87.0873 66.974 87.0873C66.974 87.0873 66.6988 87.8809 67.8476 87.7999C70.3233 87.6868 73.0902 86.602 74.3681 86.8772C75.6481 87.1972 76.3756 87.3145 77.2812 88.8847C78.2412 90.4377 79.0774 90.6809 79.0774 90.6809C79.0774 90.6809 79.6438 89.2399 79.5148 87.0884C79.9792 85.9287 80.2366 84.6965 80.2753 83.4479L79.4337 77.2505L75.7612 72.6063L71.0038 75.2441L70.6476 76.1657V76.1689Z" fill="#E3C571"/>
<path fill-rule="evenodd" clip-rule="evenodd" d="M75.1619 75.2343C75.1619 75.2343 75.5181 76.0759 77.0072 76.1559C76.8451 76.5122 76.8451 76.5613 76.8941 76.8354C76.9261 77.1106 76.9741 77.5149 76.9741 77.5149C77.1381 77.4355 77.2862 77.3271 77.4115 77.1949C77.4925 77.5511 77.3304 78.1165 77.4115 78.5218C77.4615 78.7683 77.5429 79.0074 77.6536 79.2333C77.6772 79.1779 77.7043 79.1241 77.7347 79.0722C77.7667 78.9911 78.0547 79.9458 78.8515 80.6722C78.8508 80.5605 78.8783 80.4504 78.9315 80.3522C78.9437 80.5551 79.0108 80.7509 79.1256 80.9186C79.066 80.8902 79.0115 80.852 78.9645 80.8055C78.9645 80.8055 79.0445 83.3655 79.4819 84.6893C79.5549 84.6037 79.6199 84.5116 79.676 84.4141C79.676 84.3341 79.644 85.1266 79.5629 85.6941C79.4499 86.2605 79.5309 87.053 79.5309 87.053C79.8227 86.8233 80.1433 86.6329 80.4845 86.4866C80.9699 86.2914 81.7645 85.693 82.2488 84.3661C82.5297 83.6146 82.7463 82.8406 82.8963 82.0525C83.0527 82.3537 83.1607 82.6776 83.2163 83.0125C83.2493 83.4167 84.0099 83.2066 84.0099 83.2066L84.172 81.4423L85.132 77.4455L86.0056 74.9698L90.2125 68.4173L97.8136 62.5634L104.448 64.0845L110.046 56.4791L100.402 50.6861L91.276 51.6407L82.9933 63.1127L76.3597 73.5181L75.1619 75.2333V75.2343Z" fill="#D8B65B"/>
<path fill-rule="evenodd" clip-rule="evenodd" d="M122.961 58.6472C122.961 58.6472 122.395 58.7602 120.76 59.6072C119.126 60.4541 117.994 60.7229 117.362 61.9688C116.731 63.2147 116.683 64.2024 116.683 64.2024C116.683 64.2024 117.799 63.7171 118.447 63.5549C119.126 63.3939 119.887 63.4419 119.806 63.7171C119.728 63.9058 119.62 64.0805 119.486 64.2344C119.486 64.2344 120.766 64.2024 120.732 64.8339C120.697 65.4654 120.489 66.1608 120.247 66.468C120.004 66.788 119.002 67.2617 118.888 67.6339C118.613 68.3945 119.002 68.4265 118.855 69.0409C118.742 69.6403 118.209 70.8052 116.461 72.8436C114.664 74.8831 113.901 76.3231 113.901 76.3231C113.901 76.3231 113.027 74.6889 112.574 73.2809C112.254 73.442 110.535 74.3967 110.535 74.3967L106.555 60.5298L106.635 59.6072C106.635 59.6072 106.991 59.1709 107.072 58.3613C106.474 58.1672 106.393 58.005 105.599 57.2455C104.805 56.4861 104.159 55.5623 102.833 54.9308C102.639 54.5746 102.396 54.0903 101.425 53.8951C100.454 53.6999 99.8721 53.5399 99.8721 53.5399C99.8721 53.5399 100.389 53.3447 100.633 52.9404C100.033 53.0215 99.5489 53.2156 98.238 53.1836C96.9111 53.1506 96.7649 53.1026 96.0375 53.2156C95.31 53.3287 94.4375 53.653 94.1121 52.5362C93.7559 52.2609 92.9954 52.5042 92.3479 53.4578C91.7004 54.4114 91.4743 55.173 90.2285 55.5453C90.1408 56.0944 89.9486 56.6217 89.6621 57.0983C89.3058 57.6978 88.7394 58.2962 87.9789 59.1858C86.781 60.5938 86.9751 62.9075 85.0658 64.6718C83.1405 66.435 85.3858 59.7842 85.3858 59.7842L88.4599 52.4242L97.214 43.8641L110.806 42.9424L112.133 49.9825L118.768 52.2642L122.959 58.6557L122.961 58.6472Z" fill="#D3AE4D"/>
<path fill-rule="evenodd" clip-rule="evenodd" d="M125.114 60.1988L119.402 51.9632L115.405 48.8881C115.405 48.8881 112.557 43.6466 112.363 43.4845C112.201 43.3714 109.515 43.0802 107.8 42.9671L108.12 43.7597C108.495 43.8813 108.827 44.1056 109.08 44.4071C109.841 45.2807 110.326 46.9308 108.595 48.695C109.274 48.9372 109.555 49.015 110.148 48.9372C109.55 49.6497 108.191 51.1707 108.11 52.4976C108.029 53.5814 108.708 53.9045 108.708 53.9045C108.708 53.9045 107.672 55.1024 107.624 57.1045C108.113 56.5529 108.649 56.0441 109.224 55.5834C110.422 54.6235 112.072 53.544 113.189 52.8646C113.174 53.1497 113.212 53.4352 113.302 53.7062C113.302 53.7062 115.388 51.991 117.142 52.7515C117.934 53.1078 117.578 54.2245 117.578 54.2245C117.578 54.2245 118.663 53.8203 119.423 54.5808C120.184 55.3413 121.267 57.2986 121.818 58.0602C122.06 58.4165 122.691 59.0959 123.338 60.1466C124.221 61.6193 124.958 63.1747 125.539 64.7908C125.571 64.1433 125.701 63.2377 126.819 63.2377L125.12 60.1956L125.114 60.1988Z" fill="#CAA13E"/>
<path fill-rule="evenodd" clip-rule="evenodd" d="M39.4829 83.5947C39.4829 83.5947 39.0786 82.5909 39.4829 80.6336C39.8872 78.6763 40.5186 77.7536 40.7288 74.8736C40.9389 71.9936 42.8162 68.4011 42.8162 68.4011L48.0098 66.0395L51.6833 67.0421L52.7671 71.9616L48.1228 74.5216C48.1228 74.5216 47.8807 75.6053 46.5698 76.4789C45.2589 77.3525 43.4466 78.032 43.0103 78.9227C42.7495 79.468 42.5592 80.0444 42.4439 80.6379C42.4439 80.6379 41.117 80.3627 40.3245 81.2363C39.4829 82.1269 39.5149 82.9195 39.4829 83.5989V83.5947Z" fill="#F4EFC8"/>
<path fill-rule="evenodd" clip-rule="evenodd" d="M49.9682 82.2756C49.9682 82.2756 49.5309 82.5508 49.2077 83.2356C48.8877 82.7183 48.1229 79.6431 48.0909 76.8762C48.0589 74.1093 47.8935 73.4234 48.5335 72.4699C49.1735 71.5163 51.6834 70.5115 51.3271 68.7942C50.9709 67.16 49.4818 66.4806 47.6535 66.9499C46.3735 67.2699 45.421 69.992 44.0941 71.3509C43.0903 72.3866 41.8935 72.2245 41.5703 72.7909C41.133 73.5514 41.5373 74.312 41.4082 74.7973C41.3751 74.9594 40.9709 75.833 40.2423 76.8847C38.7703 79.0042 36.2786 81.9983 35.9543 84.6841C36.0674 83.1631 35.9874 83.1311 36.3917 81.4479L36.1485 81.0436L37.7485 75.801L38.7842 71.4811L41.0989 64.247L45.1757 56.853L49.1405 52.4189L53.2663 52.6941L53.7517 58.8913L56.1143 70.5264L61.0818 76.6426L53.1202 82.0004L49.965 82.2756H49.9682Z" fill="#EBCC73"/>
<path fill-rule="evenodd" clip-rule="evenodd" d="M52.4435 84.4827C52.4435 84.4827 51.7641 84.6448 51.5209 84.5158C51.2777 84.3867 51.0366 84.2406 51.1166 84.0784C51.1966 83.9163 51.6339 83.6421 51.6339 83.512C51.6429 83.3944 51.6057 83.2779 51.5302 83.1873C51.4548 83.0967 51.3469 83.0391 51.2297 83.0266C50.8574 82.9786 50.7443 83.2208 50.7443 83.2208C50.7443 83.2208 50.3881 82.9466 50.0979 82.9008C50.2696 82.8798 50.4423 82.8687 50.6153 82.8677C50.1681 82.6651 49.6938 82.529 49.2073 82.4634C49.6115 82.2213 50.4051 81.5087 50.9225 81.5087C51.4398 81.5087 51.7641 81.4287 51.683 81.1535C51.6019 80.8783 51.1977 80.474 50.7614 80.3119C50.9225 80.1177 51.0366 79.8265 50.6483 79.0318C50.243 78.2393 50.4051 77.7048 50.5353 77.5118C50.6483 77.2686 51.0526 76.8323 51.2467 76.5571C51.4409 76.2818 51.603 75.9096 51.9262 75.7154C52.0883 75.6024 52.6057 75.3954 53.1241 75.1981C53.6905 75.0039 54.1598 74.7607 54.483 75.0039C54.8393 75.2461 54.6771 75.5704 54.6771 75.5704C54.6771 75.5704 55.7939 75.165 56.7966 75.6834C57.8003 76.1677 60.2441 76.476 60.2441 76.476L61.1198 78.2403L55.3267 83.208L52.9321 84.4059L52.4467 84.4859L52.4435 84.4827Z" fill="#E5C66B"/>
<path fill-rule="evenodd" clip-rule="evenodd" d="M60.4853 76.3687C60.4853 76.3687 58.689 77.5666 58.2848 78.0028C58.5269 78.0359 58.9312 78.198 58.769 78.4401C58.5749 78.6823 57.4101 79.5239 56.7626 80.3175C56.0832 81.11 55.4357 82.1138 55.2096 82.5991C54.9674 83.0354 53.1221 84.3143 52.4917 84.4754C53.8186 84.4754 56.4885 82.8412 57.4912 82.8412C57.4592 83.3266 57.7664 83.877 58.3328 83.925C58.8992 83.973 60.5333 84.2812 62.7338 82.9223C64.9344 81.5954 64.2069 80.6076 65.1285 79.9612C66.8928 78.7953 67.6042 77.7596 68.5749 77.1132C69.5456 76.4668 70.048 76.3196 70.048 76.3196C70.048 76.3196 70.08 75.8343 70.368 75.8834C70.4468 75.8924 70.5217 75.9228 70.5844 75.9713C70.6472 76.0198 70.6956 76.0846 70.7242 76.1586C70.7242 76.1586 72.4074 74.9607 74.5642 74.6375C74.5139 74.615 74.4737 74.5747 74.4512 74.5244C74.4512 74.5244 74.6122 74.4433 74.6453 74.3623C74.6453 74.3623 74.7584 74.2001 74.8394 74.2812C74.9205 74.3623 75.0336 74.9607 75.1957 75.2039C75.552 75.0418 76.2314 73.5207 76.2314 73.5207L77.8666 68.8444V64.5724L76.5866 64.8156L66.9866 68.8924L61.1605 74.9287L60.481 76.3687H60.4853Z" fill="#E6BD62"/>
<path fill-rule="evenodd" clip-rule="evenodd" d="M88.1229 55.4052C88.6422 55.2792 89.14 55.0772 89.6003 54.8057C89.4061 55.3241 89.4061 55.8905 88.5645 57.1204C87.7229 58.3503 87.6909 58.5284 87.0115 59.8063C86.332 61.1332 86.2509 63.0426 85.6035 63.8832C85.8937 63.7421 86.205 63.6495 86.5251 63.609C86.5251 63.609 85.8787 64.1754 85.6035 64.7738C85.3283 65.3722 84.8429 66.6181 83.6461 67.3797C82.4493 68.1414 80.9272 68.6256 79.2931 70.4219C77.6579 72.1852 75.9757 74.4188 75.1331 75.222C75.5704 74.4615 76.1688 72.9404 76.3309 71.9377C76.4931 70.935 76.2979 69.7361 76.5731 68.4102C76.8483 67.0843 76.8483 66.1285 78.1731 63.8138C79.4979 61.4991 81.7656 53.4574 81.7656 53.4574L86.652 51.9043L88.1251 55.3998L88.1229 55.4052Z" fill="#B6933F"/>
<path fill-rule="evenodd" clip-rule="evenodd" d="M84.5948 52.4432C84.5948 52.4432 83.1228 54.5627 82.7185 56.44C82.3143 58.3174 82.6855 58.1552 82.4433 59.0779C82.2985 59.6405 82.2985 60.2305 82.4433 60.7931C82.9531 59.9718 83.6511 59.2837 84.4796 58.7856C85.8716 57.9451 87.0043 57.3456 87.6795 56.6342C88.359 55.8736 88.9254 54.6278 90.3974 53.6731C89.799 53.592 88.9574 53.3168 88.7974 53.3531C89.3968 52.6736 91.192 51.6379 93.0043 50.392C94.8005 49.112 94.6875 48.5958 97.6005 47.3179C96.6458 47.48 96.1925 47.2368 95.3989 47.3179C95.7189 46.6384 96.8389 46.3142 97.9589 45.1984C99.0789 44.0827 97.2474 42.4315 97.2474 42.4315L88.7142 47.5931L84.5884 52.4475L84.5948 52.4432Z" fill="#C49937"/>
<path fill-rule="evenodd" clip-rule="evenodd" d="M61.4397 48.5965L61.6338 47.0434L64.0776 43.1277L66.6344 36.2509V26.8493L66.4402 21.4125L66.8445 17.8519L67.1517 16.7202L67.476 16.2829L69.5624 17.3666L72.4434 21.2823L72.7186 28.8397L69.9186 40.765L61.925 49.4871L61.4397 48.5965Z" fill="#DFC068"/>
<path fill-rule="evenodd" clip-rule="evenodd" d="M67.7993 15.8372C67.7993 15.8372 66.5194 15.8702 66.2463 21.194C65.9732 26.5177 65.841 29.3166 65.6468 31.9545C65.4527 34.5924 65.0004 36.1934 64.7732 37.7476C64.5461 39.3017 64.417 41.4201 63.6895 42.715C63.3695 43.3134 62.6858 45.1908 61.0837 46.5988C59.2874 48.1518 56.6037 49.2366 56.1973 49.3177C55.4848 49.4788 51.8763 49.835 50.4044 50.6446C49.887 50.9198 48.9964 51.243 48.0097 52.1657C46.0513 53.9289 43.4466 57.0841 41.5693 60.8868C38.6893 66.5668 35.8093 82.602 35.8093 82.602L36.4568 81.5182C36.4568 81.5182 36.5379 80.0782 37.9778 77.5534C39.3858 75.0297 38.9816 72.1977 40.9389 67.3593C41.6994 65.515 42.654 63.1204 43.8188 61.0809C45.6641 57.7636 47.8966 54.9156 50.1462 53.3625C53.8187 50.8388 57.8645 50.2884 57.8645 50.2884L62.2175 47.4084C62.2175 47.4084 62.9781 45.9364 63.9818 44.2532C65.3887 41.8916 67.1818 39.2537 67.5732 35.419C68.1727 29.739 66.7316 26.0174 66.8127 22.6521C66.8938 19.2868 66.9258 16.811 67.6063 16.2116C68.2868 15.6121 67.8004 15.8393 67.8004 15.8393L67.7993 15.8372Z" fill="#A88F33"/>
<path fill-rule="evenodd" clip-rule="evenodd" d="M67.7995 41.2518C67.7995 41.2518 69.7196 36.5265 70.5985 32.3356C70.7607 31.494 71.0839 30.6534 71.1649 29.974C71.5692 26.0092 71.6823 24.375 71.1649 22.2065C70.7607 20.6065 69.2075 19.1644 68.3979 18.0465C67.6053 16.8806 67.2331 16.4465 67.3952 16.2012C67.5574 15.9558 68.1878 15.5548 68.8022 15.6028C69.4553 15.6218 70.0977 15.7734 70.6904 16.0485C71.2831 16.3235 71.8136 16.7163 72.2498 17.2028C73.4957 18.6428 74.4824 23.5302 74.4824 23.5302L75.5203 29.9793L78.1583 38.102L67.8016 41.2582L67.7995 41.2518Z" fill="#C99E3D"/>
<path fill-rule="evenodd" clip-rule="evenodd" d="M85.8413 36.3325C85.8413 36.3325 85.485 36.4935 84.8386 36.3325C84.8662 36.5966 84.8203 36.8633 84.7061 37.103C84.5918 37.3428 84.4137 37.5464 84.1911 37.6914C83.5117 37.4162 77.1511 37.9666 77.1511 37.9666C77.1511 37.9666 74.1901 37.4482 73.2674 33.5325C72.621 30.9266 73.7527 27.3351 73.3805 24.9725C72.8141 21.493 72.0215 20.8125 71.9405 19.7298C71.8594 18.6471 71.7783 18.3709 71.7783 17.6914C71.4221 17.6103 71.2119 17.4973 70.8567 17.4973C70.7757 17.1773 70.9367 16.8978 70.5815 16.3314C70.7757 16.4125 72.1026 16.5746 73.6557 18.0466C74.9357 19.2445 74.9357 19.6807 75.1287 19.9239C75.3709 20.1661 77.3293 21.8439 78.1709 23.5165C79.0125 25.189 80.6466 30.5223 81.0189 31.3959C81.1319 31.7522 81.3751 32.1085 81.9789 32.917C82.9175 34.0829 84.2925 36.0103 85.8455 36.3303L85.8413 36.3325Z" fill="#B58634"/>
<path fill-rule="evenodd" clip-rule="evenodd" d="M75.3567 19.9963C76.3369 21.5798 77.2176 23.2228 77.9935 24.9157C78.9482 27.0672 79.5146 28.8315 80.7124 30.2715C80.065 28.3952 78.9162 24.7056 78.2367 23.3947C77.4762 22.008 75.9231 20.5147 75.3567 19.9973V19.9963Z" fill="#A88F33"/>
<path fill-rule="evenodd" clip-rule="evenodd" d="M64.3522 46.6064C64.3522 46.6064 62.7181 47.0106 59.6761 48.6127C58.6724 49.1301 57.7188 49.5664 56.7962 49.9717C54.3994 51.0554 51.8289 52.057 49.7895 52.6096C49.9516 52.8037 50.0316 52.8837 50.0316 52.8837C50.0316 52.8837 50.0316 53.6773 50.4689 54.1296C50.2268 54.3728 46.9896 56.5733 47.9453 63.9354C48.5916 63.6933 49.3521 63.369 49.4652 63.369C49.6604 63.4021 49.7084 63.9354 49.9505 63.9354C50.1927 63.9354 50.9862 63.6154 51.8278 62.5274C51.7958 62.9647 51.3105 67.3658 53.9152 70.3269C54.4005 69.7605 55.6303 67.8832 55.6303 67.8832L55.6623 67.2848C55.6623 67.2848 55.7754 65.1973 56.4559 63.2879C57.1364 61.3786 58.4623 59.9706 58.4623 59.9706L65.3858 50.0837L64.3501 46.6053L64.3522 46.6064Z" fill="#E6C367"/>
<path fill-rule="evenodd" clip-rule="evenodd" d="M57.8806 61.1288C57.5636 61.3528 57.2144 61.5272 56.8449 61.6461C56.7318 61.2419 56.5697 59.8499 57.5243 58.4909C58.6411 56.8557 61.0838 54.7362 61.7633 53.0508C62.2006 51.966 62.0065 49.2481 65.8902 45.7686C69.7739 42.289 71.2939 41.0922 71.2939 41.0922L77.5723 37.937L85.2907 40.9792L81.4561 56.0087L78.479 63.0488L66.639 60.8163L57.8795 61.1288H57.8806Z" fill="#DCBA5A"/>
<path fill-rule="evenodd" clip-rule="evenodd" d="M62.4004 57.0377L63.8735 55.1934V53.8825C63.8735 53.8825 65.5076 53.4451 67.2709 51.6488C69.0341 49.8525 71.4778 46.4061 73.6304 46.6162C75.783 46.8594 75.9931 51.2926 76.0742 52.5395C76.1552 53.7865 76.4304 56.6164 76.8667 58.1385C77.3521 59.6596 71.624 65.4197 71.624 65.4197L67.7338 68.3809L62.4004 57.0377Z" fill="#E9CE77"/>
<path fill-rule="evenodd" clip-rule="evenodd" d="M66.9575 72.3856C66.9575 72.3856 68.1553 70.5083 67.2775 70.104C67.7948 68.9392 68.7495 67.7094 68.7495 67.7094C68.7495 67.7094 69.4289 66.0272 71.6293 63.9558C73.8298 61.8843 75.1897 60.5083 75.546 59.1174C75.7656 58.2109 75.8851 57.283 75.9022 56.3504C76.1401 56.5448 76.3946 56.7179 76.6627 56.8678C77.019 57.0299 78.701 58.4208 78.4589 61.2208C78.2168 64.0208 77.179 65.1856 77.179 65.1856C77.179 65.1856 76.1763 66.1883 75.4649 66.7067C74.7033 67.224 74.4292 67.8224 73.1503 67.8715C73.2818 67.767 73.4295 67.6848 73.5877 67.6283C73.5877 67.6283 72.2608 67.4672 71.5483 68.1136C70.8358 68.76 69.3212 70.7515 68.5607 71.351C67.8002 71.8363 66.9607 72.3867 66.9607 72.3867L66.9575 72.3856Z" fill="#CDAE50"/>
<path fill-rule="evenodd" clip-rule="evenodd" d="M120.76 40.9267C118.849 40.2299 116.84 39.8369 114.806 39.7619C111.408 39.6488 106.44 39.8429 101.57 39.8749C96.3273 39.9069 91.57 38.0786 84.9684 37.7554C83.8847 37.108 81.1284 34.2759 72.5247 40.2792C73.042 40.2472 78.7711 38.9523 80.7604 41.4451C82.7668 43.9209 82.2004 48.1278 81.9263 49.1305C81.4079 51.3642 79.7247 54.6165 79.0463 56.8981C78.3679 59.1797 78.5279 60.3787 78.0425 61.9787C77.5572 63.5787 76.4895 64.3734 77.1199 66.2177C77.9615 65.7003 78.3999 65.7003 79.8057 62.5451C81.2116 59.3899 80.9225 57.1402 83.2532 54.4703C85.5348 51.7844 89.3332 48.1108 90.7775 47.1881C92.2217 46.2654 103.689 40.3112 115.697 45.9913C118.593 45.6841 120.761 40.9256 120.761 40.9256L120.76 40.9267Z" fill="#D2A83E"/>
<path fill-rule="evenodd" clip-rule="evenodd" d="M77.362 38.7201C77.3501 38.5985 77.3233 38.4788 77.282 38.3638C77.1697 38.1271 77.0223 37.9088 76.8447 37.7163C76.8447 37.7163 73.9965 37.199 72.5565 37.36C70.0316 37.6352 67.7499 40.7585 66.6821 42.3607C65.6144 43.9628 64.2874 46.4375 62.8473 47.7165C62.8631 47.5919 62.8344 47.4657 62.7662 47.3602C62.7662 47.3602 62.8473 47.4733 62.6862 47.6354C62.5252 47.7975 62.5241 47.8775 62.6052 47.9554L62.8484 48.1975C62.9284 48.1975 65.1621 47.1938 68.2043 44.3575C71.4407 41.3964 73.9165 39.8774 75.2115 39.3569C75.9021 39.0634 76.624 38.8497 77.3631 38.7201V38.7201H77.362Z" fill="#C29637"/>
<path fill-rule="evenodd" clip-rule="evenodd" d="M132.607 26.5606C132.607 26.5606 132.088 27.207 131.441 27.9196C130.001 29.4406 128.123 31.1548 126.521 32.9191C125.001 34.6023 123.286 35.9132 121.36 38.1138C119.433 40.3143 117.2 42.757 116.634 43.4695C116.117 44.1821 115.713 45.3469 115.713 45.9453C115.437 45.7512 115.114 45.541 115.114 45.541C115.25 45.7951 115.413 46.0339 115.6 46.2536C116.004 46.82 116.634 47.5336 116.959 47.9688C117.356 48.5228 117.642 49.1494 117.799 49.8131C117.993 49.8451 119.239 50.0883 120.793 47.5315C122.347 44.9746 124.385 42.1757 124.385 42.1757L127.621 37.3692L129.66 33.2924L132.22 28.7292L132.61 26.5606H132.607Z" fill="#AC8132"/>
<path fill-rule="evenodd" clip-rule="evenodd" d="M135.923 23.2897C135.923 23.2897 133.965 24.8898 133.204 25.8498C132.444 26.8098 130.644 29.3294 130.644 29.3294L131.292 29.2483L134.577 26.3362L135.857 24.0545L135.922 23.294L135.923 23.2897Z" fill="#A88F33"/>
<path fill-rule="evenodd" clip-rule="evenodd" d="M135.323 151.886C135.323 151.886 135.291 150.559 136.036 149.766C136.796 148.973 138.722 147.808 140.599 143.439C142.476 139.07 142.685 138.083 142.685 138.083C142.685 138.083 139.32 140.963 137.245 141.643C137.731 140.639 138.006 139.927 138.249 139.409C137.974 139.167 136.809 138.892 136.696 138.763C137.342 138.115 137.699 136.529 139.01 135.477C140.693 134.197 143.767 131.998 146.156 130.037C148.546 128.077 153.243 123.517 153.843 122.19C154.199 122.707 154.279 123.03 154.279 123.03C154.279 123.03 151.917 126.105 150.688 128.063C149.603 129.746 149.684 130.701 149.684 130.701L151.917 129.741C151.917 129.741 152.564 132.135 149.636 135.777C150.916 135.292 151.432 135.583 152.16 135.177C150.962 135.939 149.312 136.975 147.758 139.822C146.237 142.67 144.166 145.987 140.672 148.057C137.273 150.242 135.315 151.876 135.315 151.876L135.323 151.886Z" fill="#A67A2E"/>
<path fill-rule="evenodd" clip-rule="evenodd" d="M126.553 42.6149C126.553 42.6149 125.226 45.3807 125.032 47.5332C125 48.0516 124.87 48.4559 124.87 49.0543C124.838 50.9796 124.983 53.1321 124.55 54.1347C124.388 53.7305 124.307 53.4553 124.145 53.2942C123.903 53.9737 123.465 56.0931 123.109 56.8856C122.948 56.3683 122.592 54.5721 122.625 52.4526C122.658 50.3332 122.705 49.9279 122.705 49.4916C122.625 50.138 122.187 51.0127 122.025 51.53C121.783 51.0937 121.508 50.5273 121.184 50.058C120.99 50.378 120.748 50.8505 120.537 51.0937C120.504 50.8996 120.424 50.3812 120.375 49.6537C120.343 48.8122 120.294 47.7284 120.343 47.5012C120.423 47.065 121.104 45.3498 122.544 43.7797C124.259 41.9024 126.023 38.295 126.54 37.1782C127.058 36.0614 129.258 31.4183 129.258 31.4183H130.941L128.498 36.9841C128.498 36.9841 127.026 40.0261 126.265 41.144C125.505 42.2618 123.903 45.465 123.19 46.7108C123.707 46.0314 124.145 45.6751 124.663 45.0277C125.164 44.5743 126.555 42.617 126.555 42.617L126.553 42.6149Z" fill="#8C6228"/>
<path fill-rule="evenodd" clip-rule="evenodd" d="M135.955 23.072C135.68 23.9182 135.246 24.704 134.675 25.3867C133.672 26.5846 131.519 28.1856 130.469 29.4635C129.509 30.7094 127.589 34.1078 128.461 38.1366C128.781 37.263 129.384 35.5318 130.986 33.5734C132.588 31.615 134.303 29.3664 135.146 27.6192C135.986 25.855 136.099 24.464 136.099 24.464L136.419 24.0598L136.225 23.1371L135.95 23.072H135.955Z" fill="#CBA94C"/>
<path fill-rule="evenodd" clip-rule="evenodd" d="M168.722 130.402C168.722 130.402 168.074 128.639 167.88 127.037C167.686 125.434 168.2 125.117 167.605 123.283C167.249 122.166 166.602 122.323 166.44 122.166C166.278 122.009 166.165 120.322 166.197 119.399C166.229 118.477 166.165 117.28 166.003 116.761C165.761 116.567 165.599 116.405 165.242 115.208C164.838 114.01 164.644 113.412 164.45 113.057C164.256 112.702 163.688 112.377 163.688 112.021C163.688 111.309 164.336 110.937 164.336 110.741C164.304 110.337 163.818 110.661 163.688 110.547C163.527 110.353 164.094 109.188 163.883 109.026C163.802 108.946 163.236 109.625 163.09 109.431C162.928 109.236 162.734 107.311 162.442 106.033C162.168 104.787 161.876 103.881 161.844 103.509C161.812 103.153 159.61 96.8744 159.077 95.3533C158.647 94.068 158.285 92.761 157.993 91.4376C157.831 90.677 157.718 89.1229 157.637 89.285C157.556 89.4472 157.605 90.2397 157.475 90.2077C157.362 90.1746 156.958 87.4088 156.828 86.9714C156.715 86.5341 156.035 85.0514 155.868 83.9784C155.706 82.8936 155.351 80.0616 155.108 78.1362C154.865 76.2109 154.752 75.4184 154.752 74.9362C154.791 73.757 154.726 72.5765 154.558 71.4088C154.238 69.3693 153.598 66.8936 153.036 65.4546C151.953 62.7357 149.072 55.7778 148.556 54.0466C148.556 53.6093 149.123 53.8525 149.123 53.8525C149.123 53.8525 150.53 57.38 151.566 60.0978C152.569 62.8168 153.524 65.2114 153.767 65.4546C153.961 65.6968 155.482 68.3666 156.162 72.7357C156.841 77.1048 157.083 81.1336 157.489 83.8194C157.683 85.0994 157.845 86.4573 158.249 87.8162C158.686 89.2893 159.365 90.8104 160.256 93.14C161.016 95.0984 161.583 96.7325 161.89 98.1405C162.246 99.9368 162.246 101.296 162.456 102.186C162.651 102.947 162.942 104.467 163.622 106.666C164.303 108.866 165.304 111.699 165.984 113.462C167.312 116.99 167.904 119.935 168.104 121.505C168.281 123.123 168.881 128.722 168.719 130.404L168.722 130.402Z" fill="#A88F33"/>
<path fill-rule="evenodd" clip-rule="evenodd" d="M136.036 22.8873L135.955 23.0814C135.955 23.0814 136.197 23.1625 136.149 23.4868C136.152 23.9304 136.125 24.3738 136.068 24.8137C135.988 25.3801 135.826 25.8164 135.794 26.1727C135.794 26.9332 135.907 27.8068 134.834 29.9754C134.514 30.5738 134.316 31.0911 134.154 31.4474C133.75 32.321 133.669 32.4511 133.313 32.8554C133.879 32.5354 135.918 31.2554 136.953 31.4474C136.242 31.8516 135.157 32.6452 134.477 33.681C134.64 33.713 135.319 33.8431 136.397 33.681C138.194 33.4058 140.2 32.7583 141.963 32.8874C143.889 33.0005 143.129 30.5738 143.129 30.5738L140.906 25.6873L136.699 22.7273L136.036 22.8884V22.8873Z" fill="#BE9C44"/>
<path fill-rule="evenodd" clip-rule="evenodd" d="M147.007 59.4909C147.007 59.4909 145.129 57.6136 144.369 51.1709C143.608 44.6984 143.77 35.1709 143.77 35.1709L142.249 31.4493C142.249 31.4493 141.929 28.9736 141.133 28.052C140.336 27.1304 138.771 25.5763 138.058 24.8157C137.346 24.0552 136.537 23.0195 136.052 22.8573C136.294 22.4531 137.379 20.1715 141.537 20.1395C145.695 20.1075 146.977 22.4211 147.411 23.2627C147.845 24.1043 149.806 27.7427 150.533 34.676C151.213 41.6008 151.246 42.1192 151.133 44.5139C151.051 45.8408 150.614 48.9149 149.853 52.1992C149.157 54.9832 148.397 58.0904 147.005 59.4973L147.007 59.4909Z" fill="#A17C34"/>
<path fill-rule="evenodd" clip-rule="evenodd" d="M141.12 65.0011C141.746 65.0463 142.371 64.9053 142.917 64.5958C143.515 64.5638 145.684 64.839 147.35 62.7196C147.463 63.2038 147.756 64.5158 146.994 65.6806C147.399 65.2753 147.998 65.1142 148.079 65.0011C148.111 65.5995 148.677 67.4438 146.282 71.9259C146.929 71.2144 147.689 71.2464 148.369 71.1653C148.402 72.0069 148.854 74.8378 147.657 76.3599C146.865 77.3956 145.57 77.0714 145.57 77.0714C145.589 76.8453 145.589 76.618 145.57 76.3919C145.538 75.9546 145.376 75.5183 145.49 75.2271C144.864 74.9413 144.294 74.5466 143.806 74.0613C142.398 72.7344 140.57 70.4699 140.441 68.7867C140.279 66.9094 141.962 66.5051 141.962 66.5051C141.821 66.379 141.701 66.2314 141.606 66.0678C141.525 65.7937 141.443 65.3563 141.12 65.0011V65.0011Z" fill="#8C6228"/>
<path fill-rule="evenodd" clip-rule="evenodd" d="M128.64 44.6442C128.64 44.6442 128.559 44.5311 128.123 45.0485C128.204 44.5311 128.285 44.0447 128.317 43.5754C128.524 43.1409 128.791 42.7379 129.111 42.3786C128.868 42.8629 128.705 43.3002 128.705 43.3002C128.705 43.3002 129.305 42.1834 130.178 41.5039C130.777 41.0186 131.537 40.7925 131.86 40.3391C132.217 39.8538 132.136 39.7727 132.217 39.6917C132.217 39.6917 133.01 39.1743 134.224 37.6522C134.385 37.4581 134.628 37.2479 134.791 37.0538C135.065 36.9407 135.712 36.6495 136.473 36.2602C137.266 35.8239 138.156 35.2255 138.706 34.9802C139.79 34.4949 140.94 34.5439 141.473 33.7823C141.877 33.6693 142.313 32.4554 142.233 31.4207C142.832 31.6629 145.906 33.5722 146.959 37.7471C147.719 40.7082 146.359 45.2714 145.793 47.473C145.226 49.6746 145.146 51.3077 144.353 52.3104C143.349 53.6384 140.114 55.5103 139.32 56.4373C138.641 57.1978 136.603 59.1232 136.683 60.5141C136.764 61.5498 138.042 62.1141 138.318 62.3103C138.594 62.5066 138.592 62.7477 139.11 62.6303C139.629 62.513 139.822 62.2741 140.033 62.2741C140.275 62.3061 140.275 62.3552 140.388 62.3552C140.47 62.3527 140.552 62.3416 140.631 62.3221C140.631 62.3221 140.55 63.7952 137.104 64.2421C136.861 64.2752 136.619 64.3552 136.31 64.4042C136.716 64.2101 136.958 64.2101 137.395 63.6117C136.91 63.5306 135.518 63.4496 135.162 63.3365C135.275 63.1424 135.647 62.624 135.954 62.3818C136.229 62.1397 135.922 62.0618 135.68 62.1877C135.263 62.4713 134.863 62.779 134.482 63.1093C134.078 63.4656 133.722 63.9509 133.074 64.3893C132.88 63.7418 132.912 62.512 133.674 61.6224C133.479 61.6544 133.106 62.2208 132.751 62.1077C132.687 61.5175 132.725 60.9206 132.864 60.3434C133.058 59.6149 134.11 58.337 134.11 58.337L139.19 49.2586L140.274 42.3818L128.64 44.6421V44.6442Z" fill="#92723A"/>
<path fill-rule="evenodd" clip-rule="evenodd" d="M128.366 45.0249C128.366 45.0249 128.091 45.2191 128.642 45.5913C128.561 45.7044 128.366 46.1087 128.123 46.3839C127.849 46.7039 127.557 46.9023 127.444 47.1775C127.202 47.7439 127.007 48.1321 127.007 48.3753C127.007 48.6185 126.926 50.1716 126.247 51.1743C126.004 51.5305 125.728 52.1289 125.534 52.5332C125.13 53.2447 124.774 53.8132 124.693 54.1332C124.531 54.6996 124.418 56.2527 124.418 56.2527C124.418 56.2527 124.775 55.8153 124.904 55.6543C124.709 56.0585 124.498 56.4948 124.191 56.8191C124.385 56.6569 124.952 56.2527 125.907 55.4111C127.234 54.2953 129.305 52.418 131.83 50.9311C131.069 51.2063 130.422 51.2063 129.905 51.2873C130.309 50.8831 133.95 46.6111 135.859 46.2068C135.975 46.0598 136.033 45.8753 136.022 45.6884L134.386 45.5273L131.069 46.2388L130.584 43.6788L128.366 45.0217V45.0249Z" fill="#B18E3E"/>
<path fill-rule="evenodd" clip-rule="evenodd" d="M133.641 59.5992C133.641 59.5992 133.204 60.0355 132.8 61.1203C132.489 60.7953 132.222 60.4305 132.006 60.0355C131.408 59.0328 130.486 57.7539 128.334 58.4824C128.302 57.803 128.253 57.4467 128.334 56.9614C128.69 56.8814 129.774 56.0078 130.857 54.7288C131.619 53.8552 132.331 52.8515 132.816 51.5736C133.136 51.3304 133.689 50.9262 134.416 50.4568C135.452 49.7454 136.697 48.7736 136.892 47.6899C136.406 47.884 135.371 48.3694 133.816 48.2894C134.416 48.0142 135.337 47.723 135.224 46.5251C135.468 46.363 135.662 46.2499 135.662 46.2499C135.479 46.1891 135.287 46.1616 135.095 46.1688C135.062 46.0558 135.014 45.8947 134.739 45.9747C134.464 46.0547 134.419 46.0558 134.383 46.1688C134.27 46.2019 133.897 46.1688 133.622 46.364C133.347 46.5592 132.587 47.2046 132.295 47.3176C132.408 47.1235 132.569 46.8334 132.569 46.8334C132.569 46.8334 131.777 46.9134 131.211 47.1534C130.175 47.5096 128.978 48.1571 127.764 48.7875C127.877 48.5934 127.926 48.4675 128.006 48.4312C128.086 48.395 128.281 48.3512 128.281 48.3182C128.281 48.2851 128.201 47.9982 128.249 47.8819C128.612 47.1131 129.041 46.3769 129.529 45.6814C130.096 44.9198 130.209 43.836 130.209 43.836L132.685 42.5902L139.643 40.9902L144.158 41.2654L143.591 44.3886L140.925 49.8414L138.643 54.8088L136.037 57.852L133.643 59.5992H133.641Z" fill="#543E26"/>
<path fill-rule="evenodd" clip-rule="evenodd" d="M144.919 46.0755C144.919 46.0755 142.2 49.4408 141.439 49.9592C141.925 48.9235 144.919 42.7582 146.002 41.043C145.76 40.8488 145.436 40.8488 146.197 37.843C145.55 39.363 145.323 40.1566 144.79 40.5608C144.256 40.9651 144.19 40.836 143.83 40.836C143.898 40.7129 143.926 40.5716 143.91 40.4318C143.91 40.4318 141.628 40.1566 140.07 40.1566C138.512 40.1566 135.427 40.9982 133.711 41.6776C132.352 42.244 131.591 42.244 131.106 42.5992C130.621 43.0035 130.345 43.4408 130.102 43.5539C129.908 43.667 128.987 43.9582 128.775 44.2654C128.581 44.5854 128.258 44.9448 128.258 45.0259C128.258 45.107 128.177 45.2211 128.42 45.139C128.5 45.107 129.1 44.7827 129.779 44.3784C130.701 43.8611 131.817 43.2627 132.627 42.9064C134.94 41.9838 135.669 42.1459 136.704 41.9518C137.787 41.7576 139.341 41.3043 140.376 41.3043C141.412 41.2723 143.37 41.3043 143.823 41.3854C143.629 41.5475 143.467 41.7416 143.548 42.4211C143.548 42.6152 143.386 42.8254 143.228 43.2947C142.744 44.6216 141.821 46.8222 141.308 47.939C140.597 49.459 139.788 50.7379 139.388 51.5304C138.988 52.323 138.108 54.4104 137.237 55.5272C136.365 56.644 135.91 57.3235 135.637 57.5667C135.364 57.8099 133.403 59.2488 133.55 59.7672C133.906 59.6542 136.155 58.8072 137.788 56.9683C139.421 55.1294 139.747 54.0072 141.024 53.0035C142.302 51.9998 143.306 50.3176 143.904 48.9267C144.406 47.6318 144.293 47.2275 144.923 46.0787L144.919 46.0755Z" fill="#806031"/>
<path fill-rule="evenodd" clip-rule="evenodd" d="M86.3274 71.1925C86.3274 71.1925 85.9711 72.6645 85.1615 73.393C84.3689 74.1055 82.9608 74.7199 82.7998 75.9178C82.6056 77.1146 84.2078 77.7141 84.2078 77.7141C84.2078 77.7141 83.3331 79.1541 83.3331 80.2378C83.3331 81.3546 83.3011 81.5647 83.4142 82.6325C83.2859 82.715 83.1767 82.8242 83.0942 82.9525C83.0942 82.9525 83.1742 83.9882 83.9678 84.6346C84.7615 85.281 85.4399 85.6703 85.8442 85.5082C85.9059 85.6401 85.96 85.7755 86.0063 85.9135C86.0063 85.9135 86.6058 84.3925 87.0101 83.0655C87.4144 81.7066 87.7707 81.8997 87.9317 80.0714C88.0928 78.2431 89.8518 75.1039 89.8518 75.1039L91.0519 72.4213L89.0945 70.9002L86.3274 71.1914V71.1925Z" fill="#B6903C"/>
<path fill-rule="evenodd" clip-rule="evenodd" d="M89.9676 73.8299C89.5639 74.2442 89.1913 74.6878 88.8529 75.1568C88.3355 75.8694 87.9312 76.5158 87.1707 76.792C86.4101 77.0683 85.9247 77.0662 85.9727 77.8278C86.0207 78.5894 86.7333 78.9115 87.1376 79.2998C87.5749 79.704 87.9312 80.3835 87.7371 81.1451C87.9792 81.032 88.4166 80.9019 88.8209 80.0283C89.2251 79.1547 92.053 73.831 92.053 73.831H89.9676V73.8299Z" fill="#685026"/>
<path fill-rule="evenodd" clip-rule="evenodd" d="M101.12 61.5603C101.12 61.5603 101.362 60.9139 101.12 60.4446C100.877 59.9592 99.4048 59.7971 98.6763 59.2467C97.9158 58.6803 96.9931 58.2867 96.2326 58.5353C96.3456 58.2601 96.799 57.6606 96.4267 57.5315C96.0704 57.4185 94.7446 58.0169 94.3883 58.2921C94.0321 58.5673 93.2225 58.8905 93.0614 59.0856C92.9003 59.2808 92.6241 59.652 92.462 59.4899C92.2998 59.3769 92.2198 59.0857 91.9446 59.2467C91.6694 59.4078 90.3446 60.4926 90.1004 61.124C89.8561 61.7555 89.3068 63.1635 87.6567 64.7645C86.0066 66.3656 85.294 67.4024 85.7794 68.0008C86.2647 68.5991 86.4919 68.1629 86.5729 68.6802C86.6353 69.1881 86.6079 69.7029 86.4919 70.2013C86.2977 71.0429 85.9746 71.8354 86.4108 71.9975C87.5276 72.3538 88.6124 71.6775 88.8545 71.8844C89.3399 72.3207 88.5793 73.8908 89.7281 74.198C90.894 74.518 92.0428 73.9228 92.0428 73.9228L96.2816 71.6412L100.359 69.4898L102.446 65.3629L101.327 61.9166L101.114 61.5603H101.12Z" fill="#D4B968"/>
<path fill-rule="evenodd" clip-rule="evenodd" d="M97.1195 71.4067C97.1195 71.4067 96.407 70.323 97.2817 69.3673C98.1563 68.4116 99.4011 68.0084 99.8864 67.41C99.794 67.296 99.6701 67.2118 99.5301 67.1678C99.8523 66.5914 100.344 66.1278 100.938 65.8398C100.696 65.5977 100.372 65.4036 100.016 65.4036C99.2229 65.4036 98.7365 65.8889 98.0091 65.8889C97.2977 65.8889 97.2166 65.5326 97.2166 65.5326C97.2166 65.5326 98.4144 65.4196 98.3003 64.8852C98.1872 64.3188 97.9803 64.3188 97.9803 64.3188C97.9803 64.3188 100.294 63.3588 100.698 62.8468C101.102 62.3348 101.054 61.73 101.135 61.4879C101.41 61.4879 103.012 60.6463 103.659 61.0026C104.306 61.3588 103.853 62.3295 103.853 62.3295C103.853 62.3295 105.813 60.8564 106.811 59.4122C107.684 59.4932 108.091 58.8138 108.731 58.8138C109.524 58.8138 110.77 59.8975 111.012 62.2111C111.174 63.538 111.417 64.2985 111.174 66.6452C111.061 67.9721 111.093 70.8051 111.494 72.211C111.769 73.3278 112.416 73.2147 112.416 73.2147C112.317 73.555 112.12 73.8587 111.85 74.0883C111.412 74.4926 111.364 75.5614 111.412 75.9656C111.477 76.2612 111.558 76.5528 111.656 76.8392C111.656 76.8392 111.138 77.4376 111.008 77.8429C110.895 78.2472 110.362 78.5224 109.972 78.5224C109.583 78.5224 109.778 78.4893 109.261 78.5224C108.744 78.5555 108.582 78.6355 108.257 78.5224C107.933 78.4093 107.691 78.2792 107.821 77.2424C107.934 76.2067 103.824 73.796 103.824 73.796L97.1046 71.4014L97.1195 71.4067Z" fill="#CCA849"/>
<path fill-rule="evenodd" clip-rule="evenodd" d="M89.4006 81.6351C89.4006 81.6351 90.8726 83.5935 96.9249 83.5935C99.805 83.5935 100.809 83.3183 101.405 83.1561C102.052 82.994 104.479 82.0404 106.923 79.1593C109.123 76.5545 108.638 75.4868 108.638 75.4868L107.358 75.2927L103.198 75.8591L90.8886 81.1017L89.3953 81.6351H89.4006Z" fill="#585136"/>
<path fill-rule="evenodd" clip-rule="evenodd" d="M93.915 82.1228C93.915 82.1228 88.6724 83.2886 88.6724 79.9714C88.6724 76.7353 91.9086 73.3371 92.7182 72.7387C93.5598 72.1393 95.5662 71.4588 95.5662 71.4588H100.405L101.326 73.9024L100.922 79.1768L93.915 82.1217V82.1228Z" fill="#252211"/>
<path fill-rule="evenodd" clip-rule="evenodd" d="M98.7537 72.4475C98.7537 72.4475 97.751 71.5248 95.4694 72.7675C93.1877 74.0102 91.3424 76.6076 91.2293 78.9661C91.1163 81.0525 92.9445 82.6067 95.7926 82.6878C97.9121 82.7678 99.191 82.5256 99.8385 82.3677C99.6763 82.1736 98.8347 81.1218 98.8347 81.1218L98.7547 72.4485L98.7537 72.4475Z" fill="#C3B378"/>
<path fill-rule="evenodd" clip-rule="evenodd" d="M97.7667 72.9517C97.7667 72.9517 97.5245 72.7576 96.8067 73.1458C96.2083 73.4658 95.3347 74.3116 94.6553 74.91C94.218 75.2662 93.9428 75.4273 93.6953 75.7025C92.6916 76.9003 91.85 78.8586 92.3364 79.8292C92.8228 80.7998 94.4238 81.9165 98.5016 81.156L97.7549 72.9528L97.7667 72.9517Z" fill="#E6D89C"/>
<path fill-rule="evenodd" clip-rule="evenodd" d="M96.4399 74.9645C96.4399 74.9645 95.7925 75.9683 95.7925 77.5705C95.7925 79.2046 96.7151 81.8095 100.113 82.0036C102.718 82.1658 104.465 78.2499 106.358 76.7288C107.798 75.564 108.672 75.5309 108.672 75.5309C108.672 75.5309 107.2 73.9309 103.268 71.8583C99.3849 69.7708 95.032 69.4956 92.6694 72.6999C93.7862 72.6189 97.3945 71.6962 97.3945 71.6962L99.1587 72.2626L96.4399 74.9656V74.9645Z" fill="#252211"/>
<path fill-rule="evenodd" clip-rule="evenodd" d="M101.521 77.0825C101.408 76.8404 101.327 76.5161 101.796 76.4361C102.265 76.3561 102.475 76.4031 102.637 76.7561C102.799 77.1092 102.957 77.4036 102.717 77.5497C102.475 77.6788 101.844 77.5497 101.52 77.0804L101.521 77.0825ZM100.76 74.801C100.76 74.801 100.598 74.914 100.679 74.6879C100.711 74.4138 100.923 73.9274 101.44 74.0415C101.957 74.1556 101.845 74.721 101.76 74.8831C101.674 75.0452 101.242 75.3194 100.918 75.2031C100.877 75.1926 100.839 75.1725 100.807 75.1445C100.775 75.1166 100.751 75.0815 100.735 75.0421C100.719 75.0027 100.713 74.9602 100.716 74.9179C100.72 74.8756 100.734 74.8348 100.756 74.7988L100.76 74.801Z" fill="#6F674D"/>
<path fill-rule="evenodd" clip-rule="evenodd" d="M56.9604 75.8339C56.9604 75.8339 58.2404 76.7939 59.7274 76.7566C61.1994 76.7235 63.0927 75.2035 63.9663 74.2318C64.4836 73.6654 64.9263 73.067 65.4063 72.5976C65.8116 72.1934 66.0858 71.9992 66.2799 71.724C66.5551 71.404 66.8463 70.8024 66.9924 70.6072C66.6362 70.8824 66.1188 71.3688 65.5844 71.692C65.0671 72.012 63.9503 72.6136 63.497 72.7758C63.0607 72.9379 58.5295 75.3358 58.5295 75.3358L56.9604 75.8339Z" fill="#AC924C"/>
<path fill-rule="evenodd" clip-rule="evenodd" d="M58.9165 63.8844C58.9165 63.8844 59.628 63.3991 61.004 63.0908C62.3309 62.7708 65.0008 62.5244 65.0008 62.5244L67.2013 63.4844L68.0749 66.8018L66.4749 70.2492L64.4365 71.5292L62.1218 67.8076L58.9218 63.8908L58.9165 63.8844Z" fill="#9F8E57"/>
<path fill-rule="evenodd" clip-rule="evenodd" d="M56.0365 66.8535L55.2749 67.4221C55.2749 67.4221 55.4701 67.0658 55.6312 65.982C55.7922 64.8983 56.6349 62.2603 57.8648 60.7392C59.0947 59.2181 59.0627 59.2992 59.0627 59.2992C58.9495 59.2785 58.8332 59.2821 58.7216 59.3099C58.6099 59.3377 58.5055 59.3889 58.4152 59.4603C58.5773 59.1018 59.6131 57.8218 60.6488 57.1818C61.6846 56.5418 62.0888 56.3402 63.1726 56.8618C64.2563 57.3834 64.5315 57.6543 65.3251 57.6223C66.1187 57.5903 66.7971 56.7487 66.7971 56.7487C66.7971 56.7487 66.9593 57.2661 66.3609 58.464C65.7625 59.6619 63.3998 62.1046 63.3998 62.1046L58.4803 65.47L56.0365 66.8567V66.8535Z" fill="#EAC970"/>
<path fill-rule="evenodd" clip-rule="evenodd" d="M59.6757 63.4715C59.6757 63.4715 63.2362 63.9568 64.3199 62.9542C64.3519 63.0672 64.4821 63.0672 64.4821 63.1483C64.4733 63.2094 64.4449 63.266 64.401 63.3094C64.5189 63.2906 64.6379 63.2799 64.7573 63.2774C64.8998 63.3198 65.0464 63.347 65.1946 63.3584C65.314 63.3559 65.433 63.3448 65.5509 63.3254C65.5396 63.4058 65.5123 63.4831 65.4705 63.5528C65.4287 63.6224 65.3733 63.6829 65.3077 63.7307C65.4698 63.7307 65.6277 63.7627 65.6277 63.8918C65.6277 64.0208 65.6597 64.4102 65.4655 64.4912C65.3047 64.5357 65.1335 64.5241 64.9802 64.4582C64.993 64.7645 65.0762 65.0638 65.2234 65.3328C65.5434 65.9312 66.2261 66.6128 67.1434 66.4166C67.1434 66.4166 67.6277 67.5814 65.5893 70.1702C65.3151 70.5264 65.0229 71.0118 64.6677 71.416C64.5273 71.722 64.42 72.042 64.3477 72.3707C64.3477 72.3707 67.7951 71.0438 68.7818 68.0176C69.7855 64.9755 69.9797 61.9824 69.7855 59.1835C69.7525 58.3899 69.6234 57.8246 69.4293 57.4192C68.9439 56.4155 67.5839 56.5776 67.0346 57.144C66.241 57.9376 64.9141 59.911 63.0698 61.2699C61.1925 62.6288 61.1125 62.8699 59.6714 63.4715H59.6757Z" fill="#D7BC6B"/>
<path fill-rule="evenodd" clip-rule="evenodd" d="M55.4047 67.8405C55.4047 67.8405 54.7252 68.2448 54.369 69.7605C54.0127 71.3136 54.689 73.2069 55.0805 73.8053C55.4719 74.4037 56.3605 76.0389 58.2037 76.12C58.66 76.1176 59.1111 76.024 59.5307 75.8448C60.1741 75.5497 60.7777 75.1745 61.327 74.728C62.1206 74.1296 62.767 73.6122 62.686 73.5632C62.4918 73.4821 57.7994 69.5984 57.7994 69.5984L56.0351 67.6293L55.4037 67.8426L55.4047 67.8405Z" fill="#585136"/>
<path fill-rule="evenodd" clip-rule="evenodd" d="M59.8401 74.2948C59.8401 74.2948 60.7948 74.2147 61.3612 73.8585C61.9276 73.5022 58.0437 69.6516 58.0437 69.6516L58.3189 73.8115L59.8401 74.2948Z" fill="#453A25"/>
<path fill-rule="evenodd" clip-rule="evenodd" d="M55.7125 67.5518C55.7125 67.5518 55.2272 68.4744 55.2272 68.7176C55.1461 69.5102 55.3893 72.0019 55.5835 72.7944C55.7776 73.636 56.8293 74.9139 58.1893 74.9139C59.0298 74.9139 60.1956 74.3966 60.1956 74.2675C60.1956 74.1054 58.9978 73.9475 58.6746 73.3448C58.4805 73.0248 58.3994 72.2291 58.3546 71.4248C58.3226 70.9075 58.3226 70.3411 58.5167 70.1448C58.9541 69.6595 59.0341 68.2675 59.0341 68.2675L60.5871 65.3822H58.5445L56.1008 66.9032L55.7125 67.5518Z" fill="#84754B"/>
<path fill-rule="evenodd" clip-rule="evenodd" d="M55.1135 68.4474C55.1135 68.4474 56.7135 66.328 58.1555 65.8416C59.5976 65.3552 60.2429 65.6475 60.2429 65.6475L59.4014 67.8L58.2035 69.1269L58.2846 69.8063C58.2846 69.8063 58.0894 71.6026 59.2872 72.8484C60.4851 74.0943 61.3746 74.0463 61.893 74.0463C62.4114 74.0463 63.8993 73.6089 64.6598 71.8127C65.3393 70.1306 65.9057 67.9728 64.5468 65.8096C63.2188 63.6571 60.8733 63.5739 60.42 63.5739C59.9667 63.5739 56.4073 63.752 55.1135 68.4442V68.4474Z" fill="#252211"/>
<path fill-rule="evenodd" clip-rule="evenodd" d="M96.1975 75.6479C95.5991 75.3727 96.1655 73.6906 96.7639 73.1722C97.3624 72.6538 98.1229 72.0565 99.4509 71.9744C99.9352 71.9424 100.405 72.2496 100.325 72.5738C100.211 73.1722 99.3699 74.0138 98.6093 74.6122C97.5576 75.4378 96.877 75.9551 96.1975 75.6479Z" fill="#F7F7E7"/>
<path fill-rule="evenodd" clip-rule="evenodd" d="M63.8352 66.4793C64.2725 66.4473 64.839 66.7993 64.9521 67.273C65.0651 67.7903 64.6768 68.8261 63.8352 68.8261C63.1556 68.8261 62.7993 67.9845 62.7993 67.7423C62.807 67.5432 62.8626 67.3489 62.9615 67.1759C62.9935 67.1268 63.0745 66.5604 63.8352 66.4793V66.4793Z" fill="#F8F6DE"/>
<path fill-rule="evenodd" clip-rule="evenodd" d="M57.5246 66.8457C57.5246 66.8457 56.4078 67.363 55.8905 68.4456C55.5208 69.245 55.409 70.1396 55.5705 71.0054C55.6516 71.4097 56.0558 72.4123 56.331 72.7685C56.6062 73.1248 56.9785 73.3679 57.2537 73.3349C57.5289 73.3018 58.0943 72.5744 58.0943 72.1382C58.0943 71.7019 58.1273 69.8567 58.6607 68.853C59.13 67.8504 57.5278 66.8468 57.5278 66.8468L57.5246 66.8457Z" fill="#D4C38B"/>
<path fill-rule="evenodd" clip-rule="evenodd" d="M57.6864 66.7654C57.4923 66.8785 57.1691 67.0406 57.2491 67.2507C57.3301 67.4448 58.0096 67.5707 58.2528 68.0442C58.528 68.5295 58.528 69.0468 58.4469 69.29C58.6583 69.1896 58.8501 69.0524 59.0133 68.8847C59.3696 68.4805 59.8059 67.9312 60.1782 67.9312C60.4214 67.9312 60.6635 68.0442 60.8907 68.0442C61.247 68.0442 61.6022 67.9312 61.6512 67.559C61.7312 67.0737 60.9718 66.6364 60.5344 66.7174C60.6155 66.3975 60.7286 65.925 60.3723 65.6007C60.016 65.2765 58.9003 65.8439 58.6571 66.006C58.4139 66.1681 57.6864 66.7665 57.6864 66.7665V66.7654Z" fill="#E2D59D"/>
<path fill-rule="evenodd" clip-rule="evenodd" d="M83.3981 100.757L85.7927 100.05L86.4722 100.535C86.4722 100.535 86.9565 101.571 87.7181 101.7C87.4749 102.217 86.8434 102.66 86.8765 103.027C86.9095 103.394 87.2327 103.674 87.2327 103.674C87.2327 103.674 85.0802 107.234 89.3202 110.821C88.3165 111.225 87.0386 111.781 86.3591 112.101C86.8434 112.214 87.8791 112.421 88.3165 112.814C88.7538 113.206 88.7538 113.331 89.1581 113.574C89.5623 113.817 89.8045 114.141 89.7245 114.286C89.4493 114.123 88.5266 113.639 88.3655 114.091C88.2045 114.544 84.3687 114.367 84.3687 114.367L77.8962 115.613C77.8962 115.613 78.1383 114.965 77.4589 114.367C76.6663 113.655 75.6957 114.399 74.6599 113.606C73.301 112.57 73.2519 111.373 72.8157 110.92C73.2519 110.645 74.1426 110.241 76.2621 109.96C76.181 109.798 75.9058 109.313 76.0679 108.877C76.2621 108.31 77.0706 107.954 76.8285 107.277C77.1847 107.195 77.3458 107.195 78.2365 106.079C79.0781 104.962 79.5954 104.72 80.2429 104.639C80.8903 104.558 81.2786 104.639 82.4765 103.522C83.317 102.729 83.0429 102.05 83.0429 102.05C83.0429 102.05 83.5922 101.872 83.3991 100.755L83.3981 100.757Z" fill="#CBAC5A"/>
<path fill-rule="evenodd" clip-rule="evenodd" d="M76.3277 101.122C76.3597 100.96 76.4899 100.879 77.3635 100.96C78.2371 101.041 83.771 100.442 85.2761 100.361C86.7972 100.248 92.153 100.328 94.7589 100.879C97.3648 101.429 100.002 102.076 101.28 102.399C102.56 102.756 102.963 102.884 102.914 103.046C102.882 103.208 102.594 103.366 102.428 103.321C102.267 103.289 98.0272 101.994 96.7173 101.721C95.4074 101.448 90.8751 100.718 88.3972 100.761C86.0836 100.794 85.1609 100.729 83.2036 100.955C81.2451 101.199 78.0088 101.522 77.0381 101.393C76.0781 101.28 76.2765 101.28 76.3256 101.118L76.3277 101.122Z" fill="#D6BC6F"/>
<path fill-rule="evenodd" clip-rule="evenodd" d="M89.3524 113.8C89.3524 113.8 92.6698 115.596 93.8676 117.797C94.7412 119.431 93.3503 120.241 93.3503 120.241C93.3503 120.241 95.2276 120.241 94.9844 121.276C94.8713 121.923 91.7482 123.67 89.6607 124.593C87.5413 125.515 87.6223 125.467 86.5866 125.628C85.5829 125.79 82.832 125.308 82.2656 126.114C81.6992 126.919 81.9456 127.749 82.1034 127.878C82.2656 127.991 83.5765 128.153 83.5765 128.153C83.5765 128.153 83.3013 128.914 80.5834 128.995C77.8656 129.076 77.1851 129.269 77.0229 129.561C76.8608 129.835 77.5403 129.674 78.7872 129.881C80.0331 130.075 81.7802 130.201 81.7802 130.201C81.7802 130.201 81.2138 130.686 79.7419 131.075C78.0587 131.511 75.4208 131.916 74.6283 132.401C75.0326 132.677 75.632 133.081 75.9083 133.113C75.2288 133.275 74.2731 133.631 74.112 133.76C74.3542 133.922 74.6784 134.117 74.6784 134.117C74.6784 134.117 73.3184 135.751 72.5259 136.156C71.7334 136.561 67.1702 138.68 65.6001 138.275C61.6844 137.24 61.1991 132.952 60.2444 132.629C58.8044 132.143 58.125 133.113 56.846 132.433C57.4124 132.029 57.7207 131.787 58.3191 131.512C57.6716 131.192 54.3223 129.068 54.3223 129.068C53.9721 128.305 53.5833 127.56 53.1575 126.836C52.5101 125.719 51.5575 124.23 50.8429 122.919C49.2898 120.039 49.2088 118.712 47.8008 117.078C48.044 116.758 48.8845 116.803 48.8845 116.803L60.6817 120.686L81.6 121.292L87.0399 113.526L89.3535 113.801L89.3524 113.8Z" fill="#DFC677"/>
<path fill-rule="evenodd" clip-rule="evenodd" d="M58.366 125.647C58.4922 125.787 58.6394 125.907 58.8022 126.003C59.2076 126.278 59.806 126.602 60.2102 127.087C60.3724 126.845 60.7766 126.407 61.4902 127.087C62.2038 127.766 63.0902 127.282 63.6417 127.443C64.2081 127.638 64.2401 127.718 64.2401 127.718C64.2401 127.718 64.5601 127.443 65.2758 127.152C65.7132 126.99 66.2305 126.877 66.7969 126.715C67.3142 126.602 67.8806 126.44 68.27 126.44C68.6262 126.682 69.9041 128.04 75.0337 126.036C79.8721 124.159 80.9878 123.949 81.7974 124.239C81.8785 124.045 81.9596 123.672 83.2054 123.721C83.2054 123.204 82.1697 121.44 82.1697 121.44L76.4577 119.482H73.3334L63.9649 121.198L58.7734 124.16L58.3692 125.653L58.366 125.647Z" fill="#C4A859"/>
<path fill-rule="evenodd" clip-rule="evenodd" d="M55.2429 122.365C55.2429 122.365 55.356 123.239 56.6509 124.162C57.9309 125.083 58.333 125.634 58.333 125.634C58.333 125.634 58.5762 125.314 58.7704 124.987C58.9645 124.631 59.1267 124.227 59.4499 124.114C60.0973 123.838 61.5693 124.356 61.8936 124.275C62.1688 124.195 62.0877 123.628 62.3789 123.628C63.0584 123.595 63.4946 124.065 63.7378 124.065C63.981 124.065 64.5784 124.033 64.6594 123.904C64.7405 123.774 64.7725 122.43 65.6952 121.783C66.6989 121.072 67.9288 121.379 68.2552 121.541C68.2552 121.783 68.2872 122.382 68.9346 122.414C69.5821 122.446 69.6461 122.333 70.2146 122.528C70.7832 122.722 71.4605 122.496 71.7677 123.449C72.0429 123.369 72.6904 123.288 72.5282 122.365C72.8482 122.123 73.1277 121.961 73.8082 121.006C73.9704 120.764 74.2445 120.489 74.4557 120.133C75.0221 120.133 75.7016 120.02 76.6072 120.812C76.332 121.006 76.1698 121.132 76.0898 121.33C76.3267 121.564 76.543 121.819 76.7362 122.09C76.9794 122.41 77.1416 122.803 77.4488 122.884C78.1282 123.078 79.245 122.803 80.4909 122.884C81.6888 122.965 82.6914 123.401 83.1288 123.676C83.2909 123.596 83.2909 123.563 83.6952 123.644C84.0994 123.725 84.4066 123.757 83.9704 123.24C84.2125 123.353 84.4877 123.596 84.7309 123.353C84.9741 123.11 85.1672 122.755 85.8466 122.674C86.5261 122.593 86.7693 122.706 87.0445 121.994C87.4008 121.121 86.1709 121.121 86.1709 121.121C86.1709 121.121 86.7373 120.602 87.3688 119.923C88.1293 119.211 89.0029 118.289 89.213 117.156C89.5693 115.068 87.5309 114.794 87.5309 114.794L77.644 117.836L65.5565 117.237L55.2493 122.366L55.2429 122.365Z" fill="#927D49"/>
<path fill-rule="evenodd" clip-rule="evenodd" d="M46.359 93.8056C46.359 93.8056 46.039 94.2099 45.8417 95.1646C45.6443 96.1193 45.7286 96.0062 45.5665 96.6857C45.4043 97.3652 43.4129 104.129 44.1596 106.411C44.9062 108.693 46.199 109.534 47.0075 111.379C47.1697 111.783 47.3275 112.026 47.4118 112.382C47.687 113.579 47.4449 114.502 47.7681 115.7C47.8811 116.104 48.1734 116.573 48.6097 117.059C49.5696 118.061 51.1344 119.016 51.8096 119.696C52.7632 120.699 54.1232 122.739 55.8544 122.932C56.7771 123.045 58.088 122.657 59.1717 122.01C60.1317 121.411 60.7247 120.57 61.7317 120.09C62.4431 119.734 63.2037 119.605 63.8831 119.443C65.2911 119.168 66.57 119.123 67.3306 119.281C68.4953 119.524 71.2463 120.366 72.7705 120.366C73.9616 120.346 75.146 120.183 76.298 119.88C78.6115 119.201 81.4104 118.035 83.2558 117.517C84.3395 117.197 85.2131 117.113 86.1037 116.919C87.6248 116.563 88.9026 116.077 89.6312 115.155C89.1458 114.588 88.5474 113.715 85.3101 113.747C81.6376 113.828 77.3977 115.866 75.3102 116.19C73.2228 116.515 72.3172 116.789 69.9865 115.947C67.7018 115.097 67.626 114.535 67.626 114.535C67.626 114.535 65.2271 112.857 64.2234 108.579C63.2197 104.302 64.2234 101.185 66.8292 98.2229C67.5087 97.4623 67.3466 96.7828 67.3466 96.7828C67.3466 96.7828 69.0617 94.4691 68.5924 92.3026C68.0751 90.15 64.7578 90.5874 64.7578 90.5874L46.3601 93.8056H46.359Z" fill="#6E6342"/>
<path fill-rule="evenodd" clip-rule="evenodd" d="M49.1265 101.002C48.9839 101.27 48.9168 101.572 48.9324 101.875C48.9644 102.312 49.0945 102.878 50.4044 104.157C51.5212 105.272 51.278 106.518 51.278 106.518C51.278 106.518 51.8401 106.631 53.3654 105.918C54.5633 105.351 54.9654 106.355 54.9654 106.355C55.3141 106.172 55.6921 106.051 56.0822 105.999C56.4357 105.966 56.7779 105.857 57.0849 105.679C57.0849 105.679 58.4929 107.118 59.7227 107.798C60.8395 108.397 61.487 108.801 62.0374 108.397C62.5547 108.041 62.5547 107.313 62.5216 106.989C62.3933 106.691 62.2308 106.409 62.0374 106.148C61.6811 105.631 61.1147 105.031 61.0774 104.548C60.9963 103.433 61.919 102.105 61.7238 101.782C61.5286 101.458 60.8022 101.377 59.0059 102.025C57.1457 102.639 49.1191 101.005 49.1191 101.005L49.1265 101.002Z" fill="#39331F"/>
<path fill-rule="evenodd" clip-rule="evenodd" d="M53.3653 108.239C53.3653 108.239 52.4442 107.365 52.7672 103.125C53.1582 103.12 53.5487 103.157 53.9314 103.238C53.9314 103.238 54.4335 106.523 53.3653 108.239Z" fill="#292311"/>
<path fill-rule="evenodd" clip-rule="evenodd" d="M46.7966 90.5643C46.9252 90.4691 47.0445 90.362 47.1529 90.2443C46.8329 90.8427 45.3556 93.2373 46.5534 97.0079C47.7513 100.761 50.7603 103.56 54.4659 103.69C58.1715 103.821 60.1193 102.007 62.3465 99.2894C63.2201 98.2057 64.2238 96.8458 65.1134 95.9242C66.4403 94.4831 67.4761 94.0789 67.4761 92.688C67.4761 89.84 64.563 88.5611 60.275 87.2833C55.987 86.0055 52.1193 86.1633 50.1129 87.038C48.1556 87.9916 47.3139 88.9953 46.7955 90.5654L46.7966 90.5643Z" fill="#252211"/>
<path fill-rule="evenodd" clip-rule="evenodd" d="M60.5664 109.514L60.8864 109.352C60.8864 109.352 60.9664 108.072 61.4847 108.106C62.0019 108.187 62.2451 108.868 62.196 109.11C62.164 109.352 62.035 109.758 61.5166 109.709C60.8373 109.725 60.5632 109.514 60.5632 109.514H60.5664Z" fill="#3F3824"/>
<path fill-rule="evenodd" clip-rule="evenodd" d="M59.1265 104.07C59.1265 104.07 59.4465 103.957 59.8379 104.345C60.1579 104.345 61.5531 104.183 61.9905 104.459C62.4278 104.734 62.5569 104.977 62.5569 104.977C62.5569 104.977 60.9227 105.333 60.0321 104.977C59.1265 104.669 59.1265 104.07 59.1265 104.07V104.07Z" fill="#2D2815"/>
<path fill-rule="evenodd" clip-rule="evenodd" d="M66.3278 104.316C66.3278 104.235 65.4541 103.637 64.5314 103.442C64.3692 103.41 64.3361 103.523 64.2113 103.523C64.1303 103.491 64.0983 103.248 64.0983 103.248L63.5734 103.524C63.5734 103.524 63.4923 103.637 63.7676 103.844C64.0097 104.038 64.4151 104.2 64.5282 104.523C64.6412 104.846 64.6412 104.959 64.6903 105.008C64.7223 105.04 65.2888 105.008 65.564 104.846C65.8392 104.684 66.3577 104.42 66.3246 104.313L66.3278 104.316Z" fill="#82764F"/>
<path fill-rule="evenodd" clip-rule="evenodd" d="M58.1558 107.612C58.1558 107.612 58.3168 106.497 59.4016 106.448C60.5174 106.367 60.7286 107.45 60.7286 107.45L60.0811 108.097C60.0811 108.081 59.5958 107.402 58.1611 107.612H58.1558Z" fill="#2D2816"/>
<path fill-rule="evenodd" clip-rule="evenodd" d="M65.1948 102.792C65.1948 102.792 64.5954 103.44 63.2696 103.634C63.1565 103.472 62.9133 103.149 63.2696 102.631C63.6258 102.113 64.0301 101.951 64.4343 102.112C64.6127 102.141 64.7791 102.221 64.9138 102.341C65.0486 102.462 65.1461 102.618 65.1948 102.792V102.792Z" fill="#574F35"/>
<path fill-rule="evenodd" clip-rule="evenodd" d="M67.6372 103.599C67.6702 103.437 67.5572 103.405 67.6372 103.324C67.7172 103.243 68.1556 103.082 68.2366 103.162C68.2686 103.195 68.2366 103.324 68.2366 103.482C68.2366 103.64 68.2366 103.802 68.1556 103.918C68.0425 104.08 67.7193 104.161 67.5572 104.113C67.395 104.065 67.363 103.838 67.363 103.793C67.443 103.761 67.6372 103.68 67.6372 103.599ZM70.3998 101.852C70.3998 101.771 70.675 101.609 70.8372 101.609C71.0793 101.609 71.0793 101.803 71.1124 101.852C71.1924 101.884 71.1924 101.819 71.2734 101.965C71.3545 102.112 71.4686 102.37 71.3865 102.532C71.3044 102.694 70.9822 102.806 70.9022 102.774C70.7892 102.693 70.4329 101.965 70.3998 101.852V101.852Z" fill="#82764F"/>
<path fill-rule="evenodd" clip-rule="evenodd" d="M64.8381 103.958C64.8381 103.958 65.1944 104.038 65.6797 104.444C65.5176 104.557 65.2744 104.686 65.2744 104.686C65.2744 104.686 65.2424 104.314 64.8381 103.957V103.958Z" fill="#6E6342"/>
<path fill-rule="evenodd" clip-rule="evenodd" d="M64.0455 100.407C63.9644 100.327 64.2877 100.133 64.4818 100.165C64.6759 100.197 64.757 100.327 64.9672 100.359C65.1773 100.391 65.2104 100.278 65.2872 100.197C65.364 100.116 65.6435 100.165 65.6915 100.197C65.7214 100.232 65.7485 100.27 65.7725 100.31C65.7759 100.248 65.792 100.188 65.8197 100.133C65.8474 100.078 65.8862 100.029 65.9336 99.9896C65.9957 99.944 66.0673 99.9131 66.143 99.899C66.2187 99.885 66.2967 99.8882 66.371 99.9086C66.403 100.022 66.5651 100.426 66.5331 100.507C66.5011 100.588 66.0157 100.702 65.9336 100.62C66.0147 100.815 66.371 101.219 66.419 101.299C66.467 101.379 66.0627 101.575 65.9016 101.543C65.6755 101.527 64.2834 100.717 64.0412 100.41L64.0455 100.407ZM66.1651 97.7209C66.1351 97.6393 66.0778 97.5707 66.0029 97.5267C65.8899 97.4947 65.5176 97.5267 65.5176 97.7209C65.5176 97.915 65.8376 99.0008 66.1971 99.5662C66.6024 100.133 66.8766 100.601 67.1518 100.731C67.2382 100.77 67.3363 100.775 67.4264 100.745C67.5164 100.715 67.5917 100.652 67.6372 100.569C67.6692 100.488 67.7502 99.8894 67.7182 98.4814C67.6862 97.0734 67.6372 95.7145 67.5561 95.6334C67.475 95.5523 67.1518 95.5534 67.0387 95.7145C66.9257 95.8755 66.1971 97.4787 66.164 97.7209H66.1651Z" fill="#585136"/>
<path fill-rule="evenodd" clip-rule="evenodd" d="M64.7258 106.007C64.7258 106.007 64.1592 105.651 63.6087 105.894C63.0912 106.137 63.1232 107.092 63.1232 107.092C63.2396 107.137 63.3654 107.154 63.4896 107.14C63.6138 107.126 63.7327 107.081 63.8359 107.011C64.1923 106.769 64.6447 106.364 64.7258 106.008V106.007Z" fill="#574F35"/>
<path fill-rule="evenodd" clip-rule="evenodd" d="M65.7929 107.278C65.7609 106.958 65.4729 106.958 65.4729 106.792C65.4927 106.713 65.5385 106.643 65.6029 106.593C65.6673 106.543 65.7466 106.516 65.8281 106.517C65.9902 106.517 66.1481 106.711 66.3465 106.837C66.5406 106.95 66.8318 107.157 66.8638 107.403C66.8958 107.65 66.5438 108.325 66.1524 108.325C65.7609 108.325 65.8772 107.597 65.7961 107.273L65.7929 107.278ZM68.9161 106.84C68.9161 106.84 68.2686 107.034 68.3166 106.84C68.3646 106.646 68.5118 106.598 68.722 106.598C68.8287 106.486 68.9723 106.417 69.1262 106.403C69.2143 106.399 69.3007 106.427 69.3684 106.484C69.3684 106.484 69.8057 106.29 69.9348 106.403C70.0638 106.516 69.9678 106.516 70.0478 106.646C70.1497 106.79 70.2165 106.957 70.243 107.131C70.243 107.261 69.7577 107.536 69.3684 107.488C68.9161 107.391 68.9961 106.921 68.9161 106.84V106.84ZM72.6857 106.112C72.6857 106.112 72.8798 106.225 72.7188 106.355C72.6057 106.468 72.0393 106.675 71.5529 106.711C71.0676 106.711 70.6313 106.791 70.6313 106.63C70.6313 106.469 71.0356 106.145 71.2777 106.064C71.3263 106.003 71.3879 105.954 71.4581 105.92C71.5283 105.887 71.6052 105.869 71.683 105.869C71.8772 105.869 72.6366 105.788 72.8478 105.756C73.042 105.723 73.2041 105.836 73.09 105.999C73.042 106.112 72.6857 106.112 72.6857 106.112V106.112ZM73.8025 101.115C73.8025 101.115 73.5593 101.632 73.2852 101.632C73.01 101.6 73.01 101.519 73.01 101.438C73.01 101.325 73.2852 101.034 73.2521 100.953C73.1721 100.953 72.9769 100.953 73.01 100.759C73.01 100.597 73.2852 100.402 73.5273 100.439C73.7103 100.288 73.938 100.203 74.1748 100.197C74.45 100.197 74.6921 100.277 74.6921 100.439C74.6921 100.601 74.3721 100.956 74.2548 101.038C74.1257 101.167 73.9636 101.252 73.8025 101.118V101.115ZM70.1129 110.678C70.1129 110.678 69.7929 110.711 69.7929 110.872C69.7929 110.954 69.8729 110.954 69.987 110.906C70.0528 110.902 70.1179 110.891 70.1812 110.872C70.2132 110.906 70.2132 111.067 70.4564 111.067C70.6561 111.04 70.8485 110.974 71.0228 110.872C71.2169 110.792 71.379 110.71 71.379 110.552C71.298 110.277 71.1358 110.147 70.8937 110.147C70.7696 110.139 70.6459 110.167 70.5374 110.228C70.5374 110.228 70.4564 110.066 70.1812 110.228C69.906 110.39 69.938 110.39 70.019 110.471C70.1641 110.6 70.1161 110.685 70.1161 110.685L70.1129 110.678ZM68.2846 112.362C68.2846 112.281 68.6889 112.118 68.802 112.167C68.915 112.199 69.2382 112.814 69.2382 112.879C69.2382 112.96 68.834 113.154 68.6718 113.154C68.5097 113.154 68.2356 112.879 68.2356 112.834C68.2356 112.802 68.4297 112.754 68.4297 112.721C68.4777 112.641 68.2846 112.446 68.2846 112.365V112.362ZM67.0046 109.999C67.0857 109.967 67.0857 109.886 67.1988 109.805C67.2342 109.781 67.2745 109.766 67.3166 109.76C67.3588 109.755 67.4017 109.759 67.442 109.773C67.4705 109.722 67.51 109.678 67.5576 109.644C67.6052 109.61 67.6597 109.588 67.7172 109.577C67.9113 109.545 68.0734 109.577 68.0372 109.659C68.0372 109.902 68.1993 110.063 68.1993 110.257C68.1993 110.451 68.0862 110.694 67.682 110.856C67.2777 110.97 66.7273 110.97 66.6462 110.938C66.5652 110.906 66.4841 110.581 66.5652 110.419C66.6462 110.257 66.8724 110.08 67.0025 109.999H67.0046Z" fill="#82764F"/>
<path fill-rule="evenodd" clip-rule="evenodd" d="M67.5204 110.109C67.5204 110.109 67.245 110.271 67.245 110.352C67.2206 110.43 67.2097 110.512 67.213 110.594C67.213 110.642 67.5695 110.562 67.6176 110.513C67.6336 110.481 67.5204 110.193 67.5204 110.109Z" fill="#6E6342"/>
<path fill-rule="evenodd" clip-rule="evenodd" d="M65.1136 109.36C65.2746 109.393 65.5498 109.36 65.7599 109.441C65.922 109.522 66.0351 109.684 65.8729 109.878C65.7108 110.072 65.553 110.363 65.1936 110.314C64.7893 110.282 64.4011 110.072 64.4011 109.91C64.3943 109.807 64.408 109.704 64.4413 109.607C64.4746 109.51 64.5269 109.421 64.5952 109.344C64.7573 109.215 64.8373 109.296 65.1125 109.36H65.1136Z" fill="#585136"/>
<path fill-rule="evenodd" clip-rule="evenodd" d="M64.9189 109.52C64.9189 109.52 64.4016 109.924 64.2715 110.119C64.1094 110.313 63.317 111.316 63.0749 111.526C63.1553 111.384 63.247 111.249 63.349 111.122C63.0291 111.327 62.7892 111.635 62.6697 111.996C62.4756 112.595 63.7543 112.918 64.5947 113.161C65.435 113.405 65.7603 113.481 65.7603 113.481C65.4509 113.016 65.1853 112.524 64.9669 112.009C64.6469 111.249 64.4816 111.168 64.6917 110.812C64.8538 110.455 65.097 110.213 65.097 109.938C64.9999 109.682 64.9189 109.52 64.9189 109.52Z" fill="#574F35"/>
<path fill-rule="evenodd" clip-rule="evenodd" d="M46.4726 110.798C46.5904 110.819 46.7111 110.819 46.8289 110.798C47.071 110.765 49.5958 109.838 52.2336 110.004C54.2083 110.123 56.1656 110.445 58.0746 110.964C61.3919 111.838 65.5178 113.569 68.1876 114.557C68.8991 114.831 69.5956 115.317 70.1076 115.511C72.147 116.304 72.227 116.304 73.4249 116.514C74.8329 116.709 76.2729 116.239 77.7779 115.916C79.6222 115.511 82.7773 115.316 85.5442 114.912C86.439 114.788 87.3214 114.588 88.1821 114.314C88.1821 114.314 85.9816 116.514 80.7059 117.307C78.5734 117.631 76.4064 117.658 74.2665 117.388C72.5833 117.226 71.4676 116.983 70.626 116.741C69.6713 116.465 67.7129 115.737 65.3023 115.14C63.6191 114.703 61.7418 114.38 59.5903 113.976C54.2827 113.004 48.5227 111.888 46.4705 110.804L46.4726 110.798Z" fill="#252211"/>
<path fill-rule="evenodd" clip-rule="evenodd" d="M40.5175 100.803C39.2376 101.887 37.8797 102.923 36.5539 103.925L32.5571 106.996C31.1982 107.999 29.8713 109.035 28.5113 110.038C27.1513 111.042 25.7934 111.996 24.3513 112.918C25.6313 111.835 26.9892 110.831 28.3481 109.844C29.707 108.858 31.116 107.89 32.427 106.89L36.4237 103.814C37.7986 102.812 39.1256 101.776 40.5175 100.805V100.803ZM33.4467 112.13C33.4467 112.13 34.8867 110.932 36.6829 109.25C38.9154 107.164 41.6503 104.493 42.5239 104.008L33.4456 112.131L33.4467 112.13Z" fill="#CFB66C"/>
<path fill-rule="evenodd" clip-rule="evenodd" d="M33.4468 112.112C34.1593 111.401 34.9198 110.705 35.6804 110.025L36.8452 109.022C37.2014 108.702 37.6068 108.343 37.962 107.987C38.6734 107.275 39.37 106.514 40.0814 105.786C40.4341 105.421 40.8069 105.075 41.1982 104.751C41.3939 104.578 41.6112 104.431 41.8446 104.314C42.0398 104.2 42.25 103.994 42.5241 103.957C42.363 104.2 42.1689 104.314 42.0068 104.524C41.8126 104.686 41.6505 104.88 41.4894 105.041C41.1332 105.397 40.7289 105.72 40.3726 106.045C39.6121 106.692 38.8196 107.324 38.059 108.002C37.2985 108.679 36.587 109.41 35.8254 110.089C35.0009 110.785 34.2404 111.465 33.4468 112.115V112.112ZM43.1236 105.64C43.1236 105.64 37.8489 110.803 36.7641 111.643L43.1236 105.64Z" fill="#CFB66C"/>
<path fill-rule="evenodd" clip-rule="evenodd" d="M43.1227 105.641C42.6481 106.191 42.1394 106.709 41.5995 107.194L39.9995 108.715C39.4821 109.233 38.9957 109.751 38.4464 110.268C37.88 110.754 37.3627 111.228 36.7632 111.676L38.3163 110.155C38.8347 109.638 39.401 109.202 39.9514 108.683L41.5045 107.162C42.0378 106.629 42.5563 106.111 43.1227 105.641V105.641ZM43.3648 108.44C42.8786 109.797 42.3057 111.122 41.6496 112.405C40.2907 115.124 38.2522 118.521 37.3616 120.254L43.3648 108.44Z" fill="#CFB66C"/>
<path fill-rule="evenodd" clip-rule="evenodd" d="M43.3646 108.447C43.3646 109.046 43.2025 109.564 43.0084 110.081C42.8191 110.599 42.6034 111.107 42.362 111.603C42.1188 112.088 41.8436 112.607 41.5684 113.076C41.2932 113.545 40.97 114.03 40.7268 114.516L39.0926 117.397C38.5262 118.357 37.9758 119.322 37.3774 120.245C37.7817 119.209 38.3321 118.238 38.8505 117.283C39.4169 116.323 39.9342 115.363 40.4505 114.37C40.7026 113.875 40.9293 113.368 41.13 112.85C41.3721 112.331 41.6142 111.846 41.8094 111.377C42.0516 110.859 42.2457 110.373 42.4889 109.904C42.763 109.402 42.9902 108.917 43.3625 108.447H43.3646Z" fill="#CFB66C"/>
<path fill-rule="evenodd" clip-rule="evenodd" d="M49.1258 121.707C49.1258 121.707 47.5258 123.826 47.6858 126.512C48.1221 125.105 48.6725 122.953 49.1258 121.707ZM50.6468 123.832C50.6468 123.832 50.0804 129.592 49.6111 132.424C50.2746 129.15 50.4036 129.425 50.6468 123.832ZM61.245 132.764C61.245 132.764 58.8504 139.804 58.8013 141.76C59.3197 139.748 60.3223 135.638 61.245 132.758V132.764Z" fill="#DEC270"/>
<path fill-rule="evenodd" clip-rule="evenodd" d="M66.8452 121.287C66.8452 121.287 70.729 127.694 73.642 133.163C72.8538 130.411 71.0404 125.364 66.8452 121.287Z" fill="#CBAF59"/>
<path fill-rule="evenodd" clip-rule="evenodd" d="M77.282 130.713C79.4143 134.482 81.3373 138.366 83.042 142.347C82.7188 139.596 81.8441 134.888 77.282 130.713Z" fill="#E3C677"/>
<path fill-rule="evenodd" clip-rule="evenodd" d="M107.961 140.166C108.607 139.762 109.886 137.56 111.003 137.011C112.119 136.445 112.96 136.331 113.964 135.215C114.967 134.049 115.244 133.337 117.442 132.416C120.518 131.088 118.402 129.373 118.402 129.373C118.741 129.04 119.103 128.732 119.486 128.451C120.28 127.853 121.201 127.124 121.121 125.845C121.008 123.694 120.604 120.57 118.84 118.758C120.555 118.402 123.839 118.16 125.88 117.642C128.241 117.043 129.326 116.201 129.326 116.201C129.326 116.201 127.967 113.888 130.168 111.558C132.368 109.229 134.164 107.837 135.491 105.231C133.97 105.037 131.651 104.228 125.734 106.477C126.053 106.627 126.361 106.8 126.656 106.994C126.656 106.994 123.016 107.998 121.689 109.114C119.374 111.072 119.083 112.674 116.575 113.872C114.068 115.07 111.543 114.745 109.456 115.716C107.37 116.687 107.062 117.512 106.3 117.869C106.462 118.063 106.268 118.386 106.575 118.661C106.381 118.936 105.248 120.781 104.1 120.781C104.213 121.218 105.183 121.541 105.183 121.541C105.183 121.541 104.472 122.059 102.66 122.189C103.581 123.149 104.456 124.195 106.867 125.716C106.672 126.12 105.863 126.72 106.187 127.48C106.543 128.241 107.467 129.277 111.155 130.118C109.277 130.198 107.078 130.635 104.115 130.231C101.154 129.875 100.668 129.665 98.84 130.118C99.0341 130.312 99.5514 130.312 100.005 130.83C99.5194 130.862 96.4773 130.473 95.4416 131.833C94.3579 133.24 93.8886 135.555 93.9696 137.108C93.4032 137.383 92.8528 137.869 93.128 138.872C93.4032 139.876 94.8432 140.199 95.7659 140.83C96.6875 141.509 96.7685 141.751 97.6432 141.59C98.5648 141.396 99.9237 140.474 100.717 140.474C101.511 140.474 102.076 141.073 102.076 141.073C102.076 141.073 104.229 140.037 104.439 140.231C104.633 140.425 104.471 141.671 104.681 141.865C104.894 142.011 107.319 140.571 107.966 140.166H107.961Z" fill="#ECD592"/>
<path fill-rule="evenodd" clip-rule="evenodd" d="M155 75.4109C144.887 49.2946 119.887 44.4562 119.887 44.4562H48.5597L48.8349 71.0578H63.0397V130.459H48.5586V157.013H117.912C134.627 157.013 148.025 140.216 148.025 140.216C169.481 109.764 154.999 75.4109 154.999 75.4109H155ZM118.284 122.32C118.284 122.32 112.844 130.168 106.926 130.168H95.0855L94.805 71.1229H110C110 71.1229 117.04 72.5949 121.958 86.5266C121.958 86.5266 128.479 106.473 118.284 122.32V122.32Z" fill="white" fill-opacity="0.5"/>
</svg>
