<svg width="49" height="50" viewBox="0 0 49 50" fill="none" xmlns="http://www.w3.org/2000/svg">
<path d="M24.4062 49.2891C27.7188 49.2891 30.8359 48.6562 33.7578 47.3906C36.6797 46.1406 39.2578 44.3984 41.4922 42.1641C43.7266 39.9297 45.4766 37.3516 46.7422 34.4297C48.0078 31.5078 48.6406 28.3906 48.6406 25.0781C48.6406 21.7656 48.0078 18.6484 46.7422 15.7266C45.4766 12.8047 43.7266 10.2344 41.4922 8.01562C39.2578 5.78125 36.6797 4.03125 33.7578 2.76562C30.8359 1.5 27.7109 0.867188 24.3828 0.867188C21.0703 0.867188 17.9531 1.5 15.0312 2.76562C12.125 4.03125 9.55469 5.78125 7.32031 8.01562C5.10156 10.2344 3.35938 12.8047 2.09375 15.7266C0.828125 18.6484 0.195312 21.7656 0.195312 25.0781C0.195312 28.3906 0.828125 31.5078 2.09375 34.4297C3.35938 37.3516 5.10156 39.9297 7.32031 42.1641C9.55469 44.3984 12.1328 46.1406 15.0547 47.3906C17.9766 48.6562 21.0938 49.2891 24.4062 49.2891ZM24.4297 29.1328C23.0078 29.1328 22.2734 28.4141 22.2266 26.9766L21.8984 15.1641C21.8672 14.4609 22.0859 13.8828 22.5547 13.4297C23.0234 12.9609 23.6406 12.7266 24.4062 12.7266C25.1562 12.7266 25.7734 12.9609 26.2578 13.4297C26.7422 13.8828 26.9688 14.4688 26.9375 15.1875L26.5625 26.9531C26.5312 28.4062 25.8203 29.1328 24.4297 29.1328ZM24.4297 37.1953C23.6484 37.1953 22.9688 36.9453 22.3906 36.4453C21.8281 35.9453 21.5469 35.3047 21.5469 34.5234C21.5469 33.7578 21.8281 33.1172 22.3906 32.6016C22.9531 32.0859 23.6328 31.8281 24.4297 31.8281C25.2109 31.8281 25.8828 32.0859 26.4453 32.6016C27.0078 33.1172 27.2891 33.7578 27.2891 34.5234C27.2891 35.3047 27.0078 35.9453 26.4453 36.4453C25.8828 36.9453 25.2109 37.1953 24.4297 37.1953Z" fill="#111111" fill-opacity="0.9"/>
</svg>
