<svg aria-label="Robinhood logo" height="35" width="142" xmlns="http://www.w3.org/2000/svg" class="css-mqr66u-RobinhoodLogotype"><path d="M34.693 11.752c-1.328 0-2.73.651-3.607 1.653h-.05V7.118h-2.43v18.285h2.23v-1.278h.05c.851.977 2.404 1.654 3.757 1.654 3.506 0 5.76-2.756 5.76-7.014 0-4.133-2.354-7.013-5.71-7.013Zm-.426 11.822c-1.829 0-3.231-1.252-3.231-2.905v-3.557c0-1.778 1.402-3.13 3.231-3.13 2.38 0 3.707 1.728 3.707 4.783 0 3.081-1.328 4.81-3.707 4.81ZM20.716 11.752c-3.606 0-6.086 2.88-6.086 7.013 0 4.233 2.405 7.014 6.086 7.014 3.632 0 6.012-2.78 6.012-7.014 0-4.133-2.455-7.013-6.012-7.013Zm0 11.822c-2.279 0-3.681-1.853-3.681-4.809 0-2.955 1.402-4.784 3.681-4.784 2.205 0 3.607 1.879 3.607 4.784 0 2.93-1.402 4.81-3.607 4.81ZM13.503 12.954c0-3.105-2.305-5.084-5.911-5.084H.729v17.533h2.504v-6.938h3.582c2.755 0 3.757 1.102 3.757 4.157v2.78h2.43v-2.78c0-2.797-.852-4.46-2.708-5.144 1.901-.666 3.209-2.234 3.209-4.524ZM7.39 16.235H3.233V10.15h4.133c2.38 0 3.607 1.027 3.607 3.056 0 1.954-1.252 3.03-3.582 3.03ZM53.653 11.752c-1.402 0-2.905.676-3.631 1.653h-.05v-1.277h-2.38v13.275h2.43v-8.34c0-1.88 1.227-3.057 3.156-3.057 1.903 0 2.805 1.102 2.805 3.407v7.99h2.454V16.71c0-3.055-1.853-4.959-4.784-4.959ZM93.278 11.752c-3.607 0-6.087 2.88-6.087 7.013 0 4.233 2.405 7.014 6.087 7.014 3.632 0 6.011-2.78 6.011-7.014 0-4.133-2.454-7.013-6.011-7.013Zm0 11.822c-2.28 0-3.682-1.853-3.682-4.809 0-2.955 1.403-4.784 3.682-4.784 2.204 0 3.607 1.879 3.607 4.784 0 2.93-1.403 4.81-3.607 4.81ZM110.16 7.118v6.287h-.05a4.836 4.836 0 0 0-3.582-1.653c-3.356 0-5.736 2.93-5.736 7.013 0 4.258 2.255 7.014 5.761 7.014 1.353 0 2.906-.677 3.757-1.654h.05v1.278h2.23V7.118h-2.43Zm0 13.55c0 1.654-1.403 2.906-3.231 2.906-2.38 0-3.707-1.728-3.707-4.809 0-3.055 1.327-4.784 3.707-4.784 1.828 0 3.231 1.353 3.231 3.131v3.557ZM79.677 11.752c-3.606 0-6.086 2.88-6.086 7.013 0 4.233 2.405 7.014 6.087 7.014 3.631 0 6.01-2.78 6.01-7.014 0-4.133-2.454-7.013-6.01-7.013Zm0 11.822c-2.279 0-3.681-1.853-3.681-4.809 0-2.955 1.402-4.784 3.681-4.784 2.205 0 3.607 1.879 3.607 4.784 0 2.93-1.402 4.81-3.607 4.81ZM44.937 7.118h-2.63v2.58h2.63v-2.58ZM67.104 11.752c-1.478 0-2.98.701-3.682 1.703h-.05V7.118h-2.43v18.285h2.43v-8.34c0-1.804 1.302-3.057 3.156-3.057 1.828 0 2.88 1.203 2.88 3.282v8.115h2.43v-8.717c0-3.03-1.828-4.934-4.734-4.934ZM44.837 12.128h-2.43v13.275h2.43V12.128ZM129.339 26.034l-.183.06c-1.177.39-2.918.994-4.481 1.713-.083.04-.138.15-.138.15l-.105.244-.005.012c-.176.398-.416.997-.521 1.242l-.08.193a.077.077 0 0 0 .02.088.07.07 0 0 0 .052.023c.01 0 .023-.003.035-.008l.188-.09c.429-.203.97-.511 1.536-.782l.02-.01c1.079-.51 2.297-1.09 3.03-1.44 0 0 .118-.062.178-.18l.549-1.102a.08.08 0 0 0-.01-.088c-.02-.025-.055-.035-.085-.025ZM124.95 24.326l.514-.99.015-.027a68.045 68.045 0 0 1 8.634-12.606l.093-.108a.112.112 0 0 0 .012-.12.108.108 0 0 0-.108-.055l-.14.02a69.27 69.27 0 0 0-6.605 1.245.867.867 0 0 0-.388.235 74.201 74.201 0 0 0-4.612 6.141.54.54 0 0 0-.077.364c.015.112.358 2.755.879 4.784-1.292 3.72-2.447 8.62-2.447 8.62a.109.109 0 0 0 .015.094c.02.027.05.042.085.042h.736a.113.113 0 0 0 .106-.07l.05-.138a68.492 68.492 0 0 1 3.238-7.431Z"/><path d="m135.192 11.51-.003-.141a.109.109 0 0 0-.07-.098.11.11 0 0 0-.117.03l-.093.105a66.845 66.845 0 0 0-9.743 14.879l-.06.125a.107.107 0 0 0 .017.12.109.109 0 0 0 .118.025l.128-.053a64.202 64.202 0 0 1 6.649-2.336.507.507 0 0 0 .309-.256c.974-1.899 3.236-5.576 3.236-5.576.057-.082.042-.205.042-.205s-.388-4.396-.413-6.62Z"/><path d="M140.236 5.167c-.553-.48-1.357-.706-2.604-.734-1.133-.025-2.478.22-4.003.722-.228.08-.411.208-.573.365a73.734 73.734 0 0 0-4.484 4.594l-.11.12a.108.108 0 0 0-.013.123c.023.04.071.06.116.05l.16-.035a68.716 68.716 0 0 1 6.893-1.115.528.528 0 0 1 .588.539c-.037 2.26.045 4.529.246 6.745l.012.145c.005.046.035.08.081.093.007.003.015.003.025.005a.115.115 0 0 0 .09-.045l.082-.118a64.055 64.055 0 0 1 4.146-5.29c.165-.188.208-.305.238-.476.46-2.95-.253-5.134-.89-5.688Z"/></svg>