<svg width="200" height="201" viewBox="0 0 200 201" fill="none" xmlns="http://www.w3.org/2000/svg">
<path d="M196.986 124.836C183.63 178.408 129.37 211.011 75.7919 197.652C22.2361 184.296 -10.3667 130.033 2.99485 76.4652C16.3447 22.8874 70.6044 -9.71787 124.166 3.63785C177.741 16.9936 210.341 71.2626 196.984 124.837L196.985 124.836H196.986Z" fill="#50AF95"/>
<path fill-rule="evenodd" clip-rule="evenodd" d="M112.654 111.983V111.983C111.947 112.036 108.293 112.254 100.144 112.254C93.6625 112.254 89.0605 112.059 87.446 111.983V111.983C62.3973 110.881 43.7006 106.52 43.7006 101.3C43.7006 96.0789 62.3973 91.7244 87.446 90.6049V107.64C89.084 107.758 93.7744 108.035 100.256 108.035C108.034 108.035 111.929 107.711 112.63 107.646V90.6166C137.626 91.7303 156.281 96.0907 156.281 101.3C156.281 106.509 137.632 110.869 112.63 111.977V111.977L112.654 111.983ZM112.654 88.8547V73.611H147.537V50.3654H52.5629V73.611H87.4402V88.8489C59.0917 90.1511 37.7729 95.7666 37.7729 102.496C37.7729 109.225 59.0917 114.834 87.4402 116.143V164.991H112.648V116.125C140.932 114.823 162.215 109.213 162.215 102.49C162.215 95.7666 140.949 90.157 112.648 88.8489V88.8489L112.654 88.8547Z" fill="white"/>
</svg>
